<svg xmlns="http://www.w3.org/2000/svg" xmlns:xlink="http://www.w3.org/1999/xlink" width="200" zoomAndPan="magnify" viewBox="0 0 150 74.999997" height="100" preserveAspectRatio="xMidYMid meet" version="1.0"><defs><g/><clipPath id="dd9b497e1f"><path d="M 82 44 L 99.703125 44 L 99.703125 62 L 82 62 Z M 82 44 " clip-rule="nonzero"/></clipPath><clipPath id="c7c4b02bb2"><path d="M 50.203125 43 L 70 43 L 70 62.628906 L 50.203125 62.628906 Z M 50.203125 43 " clip-rule="nonzero"/></clipPath></defs><path fill="#263238" d="M 90.660156 29.984375 C 89.785156 28.722656 85.675781 22.507812 84.949219 19.488281 C 83.835938 14.878906 84.808594 14.683594 84.3125 12.175781 C 83.902344 10.09375 83.042969 8.675781 82.25 7.5625 C 81.300781 6.449219 80.71875 5.972656 80.023438 5.546875 C 78.597656 4.75 74.792969 3.589844 70.667969 5.8125 C 66.386719 8.039062 66.863281 12.8125 67.65625 22.511719 C 67.921875 25.570312 62.261719 31.574219 61.46875 33.324219 C 59.5625 36.980469 58.148438 40.867188 58.292969 43.339844 C 58.605469 50.207031 61.136719 59.1875 69.082031 58.765625 C 69.71875 58.605469 72.414062 58.605469 74.792969 58.605469 C 78.125 58.445312 80.03125 58.289062 82.726562 58.921875 C 87.265625 59.390625 93.542969 53.769531 94.785156 43.183594 C 95.402344 38.585938 93.199219 33.640625 90.660156 29.984375 Z M 90.660156 29.984375 " fill-opacity="1" fill-rule="nonzero"/><path fill="#eceff1" d="M 69.113281 22.75 C 69.113281 22.75 69.71875 27.46875 65.996094 32.644531 C 62.273438 37.820312 61.972656 43.835938 63.1875 47.109375 C 64.402344 50.382812 73.289062 62.410156 84.835938 50.535156 C 86.734375 48.554688 88.328125 39.496094 85.136719 33.332031 C 81.945312 27.164062 80.429688 22.292969 80.125 20.769531 C 79.820312 19.246094 69.113281 22.75 69.113281 22.75 Z M 69.113281 22.75 " fill-opacity="1" fill-rule="nonzero"/><path fill="#263238" d="M 86.910156 34.855469 C 86.910156 34.855469 85.503906 24.628906 90 29.703125 C 96.605469 37.164062 91.289062 42.695312 90.351562 43.6875 C 89.191406 44.910156 86.101562 45.671875 87.515625 42.085938 C 88.480469 39.648438 89.164062 36.984375 86.910156 34.855469 Z M 86.910156 34.855469 " fill-opacity="1" fill-rule="nonzero"/><path fill="#eceff1" d="M 85.289062 31.503906 C 85.289062 31.503906 92.882812 36.222656 86.882812 43.480469 C 85.136719 45.613281 86.984375 46.476562 88.199219 45.257812 C 89.417969 44.039062 94.125 35.566406 85.289062 31.503906 Z M 85.289062 31.503906 " fill-opacity="1" fill-rule="nonzero"/><path fill="#263238" d="M 63.695312 35.917969 C 63.695312 35.917969 68.539062 24.839844 63.921875 29.804688 C 60.78125 33.179688 59.539062 39.855469 59.871094 42.441406 C 60.085938 44.117188 62.304688 46.394531 62.503906 42.542969 C 62.707031 38.585938 63.210938 37.519531 63.695312 35.917969 Z M 63.695312 35.917969 " fill-opacity="1" fill-rule="nonzero"/><path fill="#eceff1" d="M 62.628906 41.855469 C 62.628906 41.855469 61.210938 39.117188 63.847656 33.003906 C 59.996094 38.734375 60.730469 42.746094 62.453125 43.863281 C 64.15625 44.964844 63.441406 42.769531 62.628906 41.855469 Z M 62.628906 41.855469 " fill-opacity="1" fill-rule="nonzero"/><g clip-path="url(#dd9b497e1f)"><path fill="#ffc107" d="M 98.59375 51.769531 C 97.957031 51.449219 96.847656 50.972656 95.894531 49.542969 C 95.417969 48.746094 95.578125 46.519531 94.785156 45.566406 C 94.308594 44.929688 93.675781 45.25 93.515625 45.25 C 92.085938 45.566406 88.757812 47.792969 86.535156 45.25 C 86.21875 44.929688 85.742188 44.453125 84.949219 44.453125 C 84.15625 44.453125 83.835938 44.773438 83.519531 45.40625 C 83.203125 46.042969 83.203125 46.519531 83.203125 48.109375 C 83.203125 49.382812 83.203125 50.8125 83.042969 51.925781 C 82.726562 54.628906 82.25 56.21875 82.25 57.8125 C 82.25 59.558594 82.726562 60.671875 83.363281 61.148438 C 83.835938 61.628906 84.632812 61.945312 86.375 61.945312 C 88.121094 61.945312 89.230469 61.308594 90.34375 60.195312 C 91.136719 59.402344 91.769531 59.082031 93.992188 57.492188 C 95.738281 56.378906 98.433594 54.949219 98.910156 54.472656 C 99.226562 54.152344 99.703125 53.996094 99.703125 53.039062 C 99.703125 52.246094 99.070312 51.925781 98.59375 51.769531 Z M 98.59375 51.769531 " fill-opacity="1" fill-rule="nonzero"/></g><g clip-path="url(#c7c4b02bb2)"><path fill="#ffc107" d="M 66.703125 52.246094 C 65.117188 49.699219 64.957031 49.222656 63.847656 47.632812 C 62.894531 46.042969 60.832031 43.023438 59.5625 43.023438 C 58.613281 43.023438 58.136719 43.5 57.5 44.136719 C 56.867188 44.773438 56.230469 46.203125 55.121094 46.996094 C 54.167969 47.792969 51.472656 47.632812 50.835938 48.589844 C 50.203125 49.542969 51.472656 50.972656 51.472656 53.359375 C 51.472656 54.3125 50.679688 54.949219 50.519531 55.585938 C 50.363281 56.378906 50.203125 56.855469 50.519531 57.492188 C 51.15625 58.445312 51.949219 58.765625 57.34375 59.878906 C 60.199219 60.515625 62.894531 62.105469 64.640625 62.261719 C 66.386719 62.421875 69.398438 62.261719 69.398438 57.96875 C 69.558594 55.425781 68.132812 54.789062 66.703125 52.246094 Z M 66.703125 52.246094 " fill-opacity="1" fill-rule="nonzero"/></g><path fill="#eceff1" d="M 70.511719 13.128906 C 69.371094 13.128906 68.449219 14.550781 68.445312 16.308594 C 68.445312 18.0625 69.367188 19.488281 70.507812 19.488281 C 70.507812 19.488281 70.507812 19.488281 70.511719 19.488281 C 71.648438 19.492188 72.574219 18.066406 72.574219 16.308594 C 72.578125 14.554688 71.652344 13.128906 70.515625 13.128906 C 70.511719 13.128906 70.511719 13.128906 70.511719 13.128906 Z M 77.648438 12.492188 C 76.160156 12.492188 74.953125 14.128906 74.953125 16.148438 C 74.953125 18.167969 76.160156 19.808594 77.648438 19.808594 C 79.140625 19.808594 80.347656 18.167969 80.347656 16.148438 C 80.347656 14.128906 79.140625 12.492188 77.648438 12.492188 Z M 77.648438 12.492188 " fill-opacity="1" fill-rule="nonzero"/><path fill="#212121" d="M 71.6875 16.476562 C 71.71875 16.726562 71.722656 16.972656 71.695312 17.210938 C 71.667969 17.449219 71.617188 17.664062 71.535156 17.855469 C 71.453125 18.046875 71.351562 18.199219 71.230469 18.3125 C 71.105469 18.425781 70.972656 18.492188 70.824219 18.507812 C 70.679688 18.527344 70.53125 18.496094 70.386719 18.417969 C 70.238281 18.339844 70.101562 18.21875 69.976562 18.054688 C 69.851562 17.890625 69.746094 17.695312 69.660156 17.46875 C 69.574219 17.246094 69.515625 17.007812 69.484375 16.753906 C 69.453125 16.503906 69.449219 16.257812 69.476562 16.019531 C 69.503906 15.78125 69.558594 15.566406 69.640625 15.375 C 69.71875 15.1875 69.820312 15.035156 69.945312 14.921875 C 70.066406 14.808594 70.203125 14.742188 70.347656 14.722656 C 70.492188 14.703125 70.640625 14.734375 70.789062 14.8125 C 70.933594 14.894531 71.070312 15.015625 71.195312 15.179688 C 71.324219 15.34375 71.429688 15.539062 71.511719 15.761719 C 71.597656 15.988281 71.65625 16.226562 71.6875 16.476562 Z M 71.6875 16.476562 " fill-opacity="1" fill-rule="nonzero"/><path fill="#212121" d="M 77.515625 14.667969 C 76.640625 14.667969 75.929688 15.589844 75.929688 16.734375 C 75.925781 17.875 76.636719 18.800781 77.515625 18.800781 C 78.390625 18.800781 79.101562 17.878906 79.105469 16.738281 C 79.105469 15.59375 78.394531 14.667969 77.519531 14.667969 C 77.519531 14.667969 77.515625 14.667969 77.515625 14.667969 Z M 77.515625 14.667969 " fill-opacity="1" fill-rule="nonzero"/><path fill="#ffc107" d="M 69.71875 23.464844 C 68.765625 22.828125 67.972656 22.191406 67.972656 21.238281 C 67.972656 20.285156 68.605469 19.964844 69.558594 19.171875 C 69.71875 19.011719 71.460938 17.421875 73.207031 17.421875 C 74.953125 17.421875 77.015625 18.535156 77.808594 18.851562 C 79.238281 19.171875 80.664062 19.488281 80.507812 20.601562 C 80.347656 22.191406 80.1875 22.511719 78.601562 23.304688 C 77.492188 23.625 75.429688 25.371094 74 25.371094 C 73.367188 25.371094 72.414062 25.371094 71.78125 25.214844 C 71.304688 25.054688 70.511719 24.257812 69.71875 23.464844 Z M 69.71875 23.464844 " fill-opacity="1" fill-rule="nonzero"/><path fill="#634703" d="M 68.796875 21.039062 C 68.796875 21.039062 70.328125 22.71875 72.441406 22.632812 C 74.558594 22.546875 77.53125 20.882812 78.734375 20.109375 C 79.261719 19.835938 79.476562 20.09375 78.976562 20.539062 C 78.417969 21.035156 74.847656 23.042969 73.414062 23.230469 C 72.988281 23.289062 71.671875 23.304688 71.300781 23.1875 C 70.925781 23.074219 69.003906 22.023438 68.597656 21.414062 C 68.285156 20.9375 68.726562 20.9375 68.796875 21.039062 Z M 68.796875 21.039062 " fill-opacity="1" fill-rule="nonzero"/><path fill="#634703" d="M 72.34375 18.890625 C 72.34375 18.890625 72.070312 18.914062 71.894531 19.132812 C 71.714844 19.351562 71.511719 19.007812 71.683594 18.820312 C 71.855469 18.632812 72.042969 18.417969 72.429688 18.535156 C 72.816406 18.648438 72.441406 18.863281 72.34375 18.890625 Z M 72.34375 18.890625 " fill-opacity="1" fill-rule="nonzero"/><path fill="#634703" d="M 74.351562 18.890625 C 74.351562 18.890625 74.621094 18.914062 74.800781 19.132812 C 74.980469 19.351562 75.179688 19.007812 75.007812 18.820312 C 74.835938 18.632812 74.652344 18.417969 74.265625 18.535156 C 73.878906 18.648438 74.25 18.863281 74.351562 18.890625 Z M 74.351562 18.890625 " fill-opacity="1" fill-rule="nonzero"/><g fill="#ff00ff" fill-opacity="1"><g transform="translate(5.080954, 72.778769)"><g><path d="M 8.328125 0 L 8.328125 -1.945312 C 7.496094 -1.945312 6.71875 -4.136719 6.316406 -5.207031 C 5.386719 -7.675781 4.527344 -9.71875 2.5 -9.71875 L 2.5 -7.773438 C 3.359375 -7.773438 4.082031 -5.636719 4.511719 -4.527344 C 5.359375 -2.304688 6.234375 0 8.328125 0 Z M 8.328125 -1.945312 L 10.273438 -1.945312 L 10.273438 -9.71875 L 8.328125 -9.71875 Z M 0.554688 0 L 2.5 0 L 2.5 -7.773438 L 0.554688 -7.773438 Z M 0.554688 0 "/></g></g></g><g fill="#ff00ff" fill-opacity="1"><g transform="translate(15.903505, 72.778769)"><g><path d="M 2.5 -7.773438 L 10.273438 -7.773438 L 10.273438 -9.71875 L 2.5 -9.71875 Z M 3.46875 0 L 10.273438 0 L 10.273438 -1.945312 L 3.46875 -1.945312 C 2.941406 -1.945312 2.5 -2.375 2.5 -2.914062 L 2.5 -7.773438 L 0.554688 -7.773438 L 0.554688 -2.914062 C 0.554688 -1.320312 1.875 0 3.46875 0 Z M 3.457031 -3.886719 L 9.300781 -3.886719 L 9.300781 -5.832031 L 3.457031 -5.832031 Z M 3.457031 -3.886719 "/></g></g></g><g fill="#ff00ff" fill-opacity="1"><g transform="translate(26.726056, 72.778769)"><g><path d="M 0.554688 -1.945312 L 2.5 -1.945312 L 2.5 -9.71875 L 0.554688 -9.71875 Z M 10.273438 -1.945312 L 12.214844 -1.945312 L 12.214844 -9.71875 L 10.273438 -9.71875 Z M 2.5 0 C 4.679688 0 5.359375 -1.984375 5.859375 -4.09375 C 5.96875 -4.59375 6.148438 -5.371094 6.386719 -5.761719 C 6.609375 -5.386719 6.789062 -4.652344 6.914062 -4.09375 C 7.441406 -2 8.050781 0 10.273438 0 L 10.273438 -1.945312 C 9.382812 -1.945312 9.09375 -3.34375 8.800781 -4.554688 C 8.425781 -6.121094 7.96875 -7.773438 6.386719 -7.773438 C 4.789062 -7.773438 4.386719 -6.175781 3.96875 -4.554688 C 3.691406 -3.402344 3.402344 -1.945312 2.5 -1.945312 Z M 2.5 0 "/></g></g></g><g fill="#ff00ff" fill-opacity="1"><g transform="translate(39.491115, 72.778769)"><g/></g></g><g fill="#ff00ff" fill-opacity="1"><g transform="translate(45.041145, 72.778769)"><g><path d="M 3.46875 0 L 9.441406 0 L 9.441406 -1.945312 L 3.46875 -1.945312 C 2.929688 -1.945312 2.5 -2.375 2.5 -2.914062 L 2.5 -9.71875 L 0.554688 -9.71875 L 0.554688 -2.914062 C 0.554688 -1.304688 1.859375 0 3.46875 0 Z M 3.46875 0 "/></g></g></g><g fill="#ff00ff" fill-opacity="1"><g transform="translate(55.031195, 72.778769)"><g><path d="M 0.554688 -7.773438 L 9.441406 -7.773438 L 9.441406 -9.71875 L 0.554688 -9.71875 Z M 6.941406 0 L 9.441406 0 L 9.441406 -1.945312 L 6.941406 -1.945312 C 6.414062 -1.945312 5.96875 -2.375 5.96875 -2.914062 L 5.96875 -6.800781 L 4.039062 -6.800781 L 4.039062 -2.914062 C 4.039062 -1.320312 5.34375 0 6.941406 0 Z M 0.554688 0 L 4.027344 0 L 4.027344 -1.945312 L 0.554688 -1.945312 Z M 0.554688 0 "/></g></g></g><g fill="#ff00ff" fill-opacity="1"><g transform="translate(65.021246, 72.778769)"><g><path d="M 8.328125 0 L 8.328125 -1.945312 C 7.496094 -1.945312 6.71875 -4.136719 6.316406 -5.207031 C 5.386719 -7.675781 4.527344 -9.71875 2.5 -9.71875 L 2.5 -7.773438 C 3.359375 -7.773438 4.082031 -5.636719 4.511719 -4.527344 C 5.359375 -2.304688 6.234375 0 8.328125 0 Z M 8.328125 -1.945312 L 10.273438 -1.945312 L 10.273438 -9.71875 L 8.328125 -9.71875 Z M 0.554688 0 L 2.5 0 L 2.5 -7.773438 L 0.554688 -7.773438 Z M 0.554688 0 "/></g></g></g><g fill="#ff00ff" fill-opacity="1"><g transform="translate(75.843797, 72.778769)"><g><path d="M 3.46875 0 L 8.328125 0 L 8.328125 -1.945312 L 3.46875 -1.945312 C 2.929688 -1.945312 2.5 -2.375 2.5 -2.914062 L 2.5 -9.71875 L 0.554688 -9.71875 L 0.554688 -2.914062 C 0.554688 -1.304688 1.859375 0 3.46875 0 Z M 8.328125 -1.945312 L 10.273438 -1.945312 L 10.273438 -9.71875 L 8.328125 -9.71875 Z M 8.328125 -1.945312 "/></g></g></g><g fill="#ff00ff" fill-opacity="1"><g transform="translate(86.666347, 72.778769)"><g><path d="M 0.554688 0 L 2.5 0 L 2.5 -2.636719 C 2.5 -3.179688 2.929688 -3.609375 3.46875 -3.609375 L 4.914062 -3.609375 L 4.914062 -5.554688 L 3.886719 -5.554688 C 2.929688 -5.554688 2.5 -5.984375 2.5 -6.941406 L 2.5 -9.71875 L 0.554688 -9.71875 L 0.554688 -6.941406 C 0.554688 -5.773438 0.847656 -5.09375 1.722656 -4.582031 C 0.847656 -4.066406 0.554688 -3.386719 0.554688 -2.636719 Z M 8.328125 0 L 10.273438 0 L 10.273438 -2.636719 C 10.273438 -3.386719 9.980469 -4.066406 9.105469 -4.582031 C 9.980469 -5.09375 10.273438 -5.773438 10.273438 -6.941406 L 10.273438 -9.71875 L 8.328125 -9.71875 L 8.328125 -6.941406 C 8.328125 -5.984375 7.898438 -5.554688 6.941406 -5.554688 L 5.898438 -5.554688 L 5.898438 -3.609375 L 7.359375 -3.609375 C 7.898438 -3.609375 8.328125 -3.179688 8.328125 -2.636719 Z M 8.328125 0 "/></g></g></g><g fill="#ff00ff" fill-opacity="1"><g transform="translate(97.488898, 72.778769)"><g/></g></g><g fill="#ff00ff" fill-opacity="1"><g transform="translate(103.038928, 72.778769)"><g><path d="M 3.46875 0 L 8.328125 0 L 8.328125 -1.945312 L 3.46875 -1.945312 C 2.929688 -1.945312 2.5 -2.375 2.5 -2.914062 L 2.5 -9.71875 L 0.554688 -9.71875 L 0.554688 -2.914062 C 0.554688 -1.304688 1.859375 0 3.46875 0 Z M 8.328125 -1.945312 L 10.273438 -1.945312 L 10.273438 -9.71875 L 8.328125 -9.71875 Z M 8.328125 -1.945312 "/></g></g></g><g fill="#ff00ff" fill-opacity="1"><g transform="translate(113.861479, 72.778769)"><g><path d="M 8.328125 -6.800781 L 10.273438 -6.800781 C 10.273438 -8.414062 8.96875 -9.71875 7.359375 -9.71875 L 2.5 -9.71875 L 2.5 -7.773438 L 7.359375 -7.773438 C 7.898438 -7.773438 8.328125 -7.34375 8.328125 -6.800781 Z M 8.328125 -1.945312 L 10.273438 -1.945312 L 10.273438 -2.914062 C 10.273438 -4.527344 8.96875 -5.832031 7.359375 -5.832031 L 3.46875 -5.832031 C 2.941406 -5.832031 2.5 -6.261719 2.5 -6.800781 L 2.5 -7.773438 L 0.554688 -7.773438 L 0.554688 -6.800781 C 0.554688 -5.207031 1.875 -3.886719 3.46875 -3.886719 L 7.359375 -3.886719 C 7.898438 -3.886719 8.328125 -3.457031 8.328125 -2.914062 Z M 3.46875 0 L 8.328125 0 L 8.328125 -1.945312 L 3.46875 -1.945312 C 2.941406 -1.945312 2.5 -2.375 2.5 -2.914062 L 0.554688 -2.914062 C 0.554688 -1.320312 1.875 0 3.46875 0 Z M 3.46875 0 "/></g></g></g><g fill="#ff00ff" fill-opacity="1"><g transform="translate(124.684029, 72.778769)"><g><path d="M 2.5 -7.773438 L 10.273438 -7.773438 L 10.273438 -9.71875 L 2.5 -9.71875 Z M 3.46875 0 L 10.273438 0 L 10.273438 -1.945312 L 3.46875 -1.945312 C 2.941406 -1.945312 2.5 -2.375 2.5 -2.914062 L 2.5 -7.773438 L 0.554688 -7.773438 L 0.554688 -2.914062 C 0.554688 -1.320312 1.875 0 3.46875 0 Z M 3.457031 -3.886719 L 9.300781 -3.886719 L 9.300781 -5.832031 L 3.457031 -5.832031 Z M 3.457031 -3.886719 "/></g></g></g><g fill="#ff00ff" fill-opacity="1"><g transform="translate(135.50658, 72.778769)"><g><path d="M 8.328125 0 L 10.273438 0 L 10.273438 -1.945312 C 10.273438 -2.691406 9.980469 -3.375 9.523438 -3.886719 C 9.980469 -4.402344 10.273438 -5.082031 10.273438 -5.832031 L 10.273438 -6.800781 C 10.273438 -8.414062 8.96875 -9.71875 7.359375 -9.71875 L 2.5 -9.71875 L 2.5 -7.773438 L 7.359375 -7.773438 C 7.898438 -7.773438 8.328125 -7.34375 8.328125 -6.800781 L 8.328125 -5.832031 C 8.328125 -5.289062 7.898438 -4.859375 7.359375 -4.859375 L 3.46875 -4.859375 L 3.46875 -2.914062 L 7.359375 -2.914062 C 7.898438 -2.914062 8.328125 -2.484375 8.328125 -1.945312 Z M 0.554688 0 L 2.5 0 L 2.5 -7.773438 L 0.554688 -7.773438 Z M 0.554688 0 "/></g></g></g><g fill="#00ffff" fill-opacity="1"><g transform="translate(3.661239, 73.471217)"><g><path d="M 8.328125 0 L 8.328125 -1.945312 C 7.496094 -1.945312 6.71875 -4.136719 6.316406 -5.207031 C 5.386719 -7.675781 4.527344 -9.71875 2.5 -9.71875 L 2.5 -7.773438 C 3.359375 -7.773438 4.082031 -5.636719 4.511719 -4.527344 C 5.359375 -2.304688 6.234375 0 8.328125 0 Z M 8.328125 -1.945312 L 10.273438 -1.945312 L 10.273438 -9.71875 L 8.328125 -9.71875 Z M 0.554688 0 L 2.5 0 L 2.5 -7.773438 L 0.554688 -7.773438 Z M 0.554688 0 "/></g></g></g><g fill="#00ffff" fill-opacity="1"><g transform="translate(14.48379, 73.471217)"><g><path d="M 2.5 -7.773438 L 10.273438 -7.773438 L 10.273438 -9.71875 L 2.5 -9.71875 Z M 3.46875 0 L 10.273438 0 L 10.273438 -1.945312 L 3.46875 -1.945312 C 2.941406 -1.945312 2.5 -2.375 2.5 -2.914062 L 2.5 -7.773438 L 0.554688 -7.773438 L 0.554688 -2.914062 C 0.554688 -1.320312 1.875 0 3.46875 0 Z M 3.457031 -3.886719 L 9.300781 -3.886719 L 9.300781 -5.832031 L 3.457031 -5.832031 Z M 3.457031 -3.886719 "/></g></g></g><g fill="#00ffff" fill-opacity="1"><g transform="translate(25.306341, 73.471217)"><g><path d="M 0.554688 -1.945312 L 2.5 -1.945312 L 2.5 -9.71875 L 0.554688 -9.71875 Z M 10.273438 -1.945312 L 12.214844 -1.945312 L 12.214844 -9.71875 L 10.273438 -9.71875 Z M 2.5 0 C 4.679688 0 5.359375 -1.984375 5.859375 -4.09375 C 5.96875 -4.59375 6.148438 -5.371094 6.386719 -5.761719 C 6.609375 -5.386719 6.789062 -4.652344 6.914062 -4.09375 C 7.441406 -2 8.050781 0 10.273438 0 L 10.273438 -1.945312 C 9.382812 -1.945312 9.09375 -3.34375 8.800781 -4.554688 C 8.425781 -6.121094 7.96875 -7.773438 6.386719 -7.773438 C 4.789062 -7.773438 4.386719 -6.175781 3.96875 -4.554688 C 3.691406 -3.402344 3.402344 -1.945312 2.5 -1.945312 Z M 2.5 0 "/></g></g></g><g fill="#00ffff" fill-opacity="1"><g transform="translate(38.0714, 73.471217)"><g/></g></g><g fill="#00ffff" fill-opacity="1"><g transform="translate(43.62143, 73.471217)"><g><path d="M 3.46875 0 L 9.441406 0 L 9.441406 -1.945312 L 3.46875 -1.945312 C 2.929688 -1.945312 2.5 -2.375 2.5 -2.914062 L 2.5 -9.71875 L 0.554688 -9.71875 L 0.554688 -2.914062 C 0.554688 -1.304688 1.859375 0 3.46875 0 Z M 3.46875 0 "/></g></g></g><g fill="#00ffff" fill-opacity="1"><g transform="translate(53.61148, 73.471217)"><g><path d="M 0.554688 -7.773438 L 9.441406 -7.773438 L 9.441406 -9.71875 L 0.554688 -9.71875 Z M 6.941406 0 L 9.441406 0 L 9.441406 -1.945312 L 6.941406 -1.945312 C 6.414062 -1.945312 5.96875 -2.375 5.96875 -2.914062 L 5.96875 -6.800781 L 4.039062 -6.800781 L 4.039062 -2.914062 C 4.039062 -1.320312 5.34375 0 6.941406 0 Z M 0.554688 0 L 4.027344 0 L 4.027344 -1.945312 L 0.554688 -1.945312 Z M 0.554688 0 "/></g></g></g><g fill="#00ffff" fill-opacity="1"><g transform="translate(63.601531, 73.471217)"><g><path d="M 8.328125 0 L 8.328125 -1.945312 C 7.496094 -1.945312 6.71875 -4.136719 6.316406 -5.207031 C 5.386719 -7.675781 4.527344 -9.71875 2.5 -9.71875 L 2.5 -7.773438 C 3.359375 -7.773438 4.082031 -5.636719 4.511719 -4.527344 C 5.359375 -2.304688 6.234375 0 8.328125 0 Z M 8.328125 -1.945312 L 10.273438 -1.945312 L 10.273438 -9.71875 L 8.328125 -9.71875 Z M 0.554688 0 L 2.5 0 L 2.5 -7.773438 L 0.554688 -7.773438 Z M 0.554688 0 "/></g></g></g><g fill="#00ffff" fill-opacity="1"><g transform="translate(74.424081, 73.471217)"><g><path d="M 3.46875 0 L 8.328125 0 L 8.328125 -1.945312 L 3.46875 -1.945312 C 2.929688 -1.945312 2.5 -2.375 2.5 -2.914062 L 2.5 -9.71875 L 0.554688 -9.71875 L 0.554688 -2.914062 C 0.554688 -1.304688 1.859375 0 3.46875 0 Z M 8.328125 -1.945312 L 10.273438 -1.945312 L 10.273438 -9.71875 L 8.328125 -9.71875 Z M 8.328125 -1.945312 "/></g></g></g><g fill="#00ffff" fill-opacity="1"><g transform="translate(85.246632, 73.471217)"><g><path d="M 0.554688 0 L 2.5 0 L 2.5 -2.636719 C 2.5 -3.179688 2.929688 -3.609375 3.46875 -3.609375 L 4.914062 -3.609375 L 4.914062 -5.554688 L 3.886719 -5.554688 C 2.929688 -5.554688 2.5 -5.984375 2.5 -6.941406 L 2.5 -9.71875 L 0.554688 -9.71875 L 0.554688 -6.941406 C 0.554688 -5.773438 0.847656 -5.09375 1.722656 -4.582031 C 0.847656 -4.066406 0.554688 -3.386719 0.554688 -2.636719 Z M 8.328125 0 L 10.273438 0 L 10.273438 -2.636719 C 10.273438 -3.386719 9.980469 -4.066406 9.105469 -4.582031 C 9.980469 -5.09375 10.273438 -5.773438 10.273438 -6.941406 L 10.273438 -9.71875 L 8.328125 -9.71875 L 8.328125 -6.941406 C 8.328125 -5.984375 7.898438 -5.554688 6.941406 -5.554688 L 5.898438 -5.554688 L 5.898438 -3.609375 L 7.359375 -3.609375 C 7.898438 -3.609375 8.328125 -3.179688 8.328125 -2.636719 Z M 8.328125 0 "/></g></g></g><g fill="#00ffff" fill-opacity="1"><g transform="translate(96.069183, 73.471217)"><g/></g></g><g fill="#00ffff" fill-opacity="1"><g transform="translate(101.619212, 73.471217)"><g><path d="M 3.46875 0 L 8.328125 0 L 8.328125 -1.945312 L 3.46875 -1.945312 C 2.929688 -1.945312 2.5 -2.375 2.5 -2.914062 L 2.5 -9.71875 L 0.554688 -9.71875 L 0.554688 -2.914062 C 0.554688 -1.304688 1.859375 0 3.46875 0 Z M 8.328125 -1.945312 L 10.273438 -1.945312 L 10.273438 -9.71875 L 8.328125 -9.71875 Z M 8.328125 -1.945312 "/></g></g></g><g fill="#00ffff" fill-opacity="1"><g transform="translate(112.441763, 73.471217)"><g><path d="M 8.328125 -6.800781 L 10.273438 -6.800781 C 10.273438 -8.414062 8.96875 -9.71875 7.359375 -9.71875 L 2.5 -9.71875 L 2.5 -7.773438 L 7.359375 -7.773438 C 7.898438 -7.773438 8.328125 -7.34375 8.328125 -6.800781 Z M 8.328125 -1.945312 L 10.273438 -1.945312 L 10.273438 -2.914062 C 10.273438 -4.527344 8.96875 -5.832031 7.359375 -5.832031 L 3.46875 -5.832031 C 2.941406 -5.832031 2.5 -6.261719 2.5 -6.800781 L 2.5 -7.773438 L 0.554688 -7.773438 L 0.554688 -6.800781 C 0.554688 -5.207031 1.875 -3.886719 3.46875 -3.886719 L 7.359375 -3.886719 C 7.898438 -3.886719 8.328125 -3.457031 8.328125 -2.914062 Z M 3.46875 0 L 8.328125 0 L 8.328125 -1.945312 L 3.46875 -1.945312 C 2.941406 -1.945312 2.5 -2.375 2.5 -2.914062 L 0.554688 -2.914062 C 0.554688 -1.320312 1.875 0 3.46875 0 Z M 3.46875 0 "/></g></g></g><g fill="#00ffff" fill-opacity="1"><g transform="translate(123.264314, 73.471217)"><g><path d="M 2.5 -7.773438 L 10.273438 -7.773438 L 10.273438 -9.71875 L 2.5 -9.71875 Z M 3.46875 0 L 10.273438 0 L 10.273438 -1.945312 L 3.46875 -1.945312 C 2.941406 -1.945312 2.5 -2.375 2.5 -2.914062 L 2.5 -7.773438 L 0.554688 -7.773438 L 0.554688 -2.914062 C 0.554688 -1.320312 1.875 0 3.46875 0 Z M 3.457031 -3.886719 L 9.300781 -3.886719 L 9.300781 -5.832031 L 3.457031 -5.832031 Z M 3.457031 -3.886719 "/></g></g></g><g fill="#00ffff" fill-opacity="1"><g transform="translate(134.086865, 73.471217)"><g><path d="M 8.328125 0 L 10.273438 0 L 10.273438 -1.945312 C 10.273438 -2.691406 9.980469 -3.375 9.523438 -3.886719 C 9.980469 -4.402344 10.273438 -5.082031 10.273438 -5.832031 L 10.273438 -6.800781 C 10.273438 -8.414062 8.96875 -9.71875 7.359375 -9.71875 L 2.5 -9.71875 L 2.5 -7.773438 L 7.359375 -7.773438 C 7.898438 -7.773438 8.328125 -7.34375 8.328125 -6.800781 L 8.328125 -5.832031 C 8.328125 -5.289062 7.898438 -4.859375 7.359375 -4.859375 L 3.46875 -4.859375 L 3.46875 -2.914062 L 7.359375 -2.914062 C 7.898438 -2.914062 8.328125 -2.484375 8.328125 -1.945312 Z M 0.554688 0 L 2.5 0 L 2.5 -7.773438 L 0.554688 -7.773438 Z M 0.554688 0 "/></g></g></g><g fill="#dc3c4d" fill-opacity="1"><g transform="translate(4.371096, 73.124993)"><g><path d="M 8.328125 0 L 8.328125 -1.945312 C 7.496094 -1.945312 6.71875 -4.136719 6.316406 -5.207031 C 5.386719 -7.675781 4.527344 -9.71875 2.5 -9.71875 L 2.5 -7.773438 C 3.359375 -7.773438 4.082031 -5.636719 4.511719 -4.527344 C 5.359375 -2.304688 6.234375 0 8.328125 0 Z M 8.328125 -1.945312 L 10.273438 -1.945312 L 10.273438 -9.71875 L 8.328125 -9.71875 Z M 0.554688 0 L 2.5 0 L 2.5 -7.773438 L 0.554688 -7.773438 Z M 0.554688 0 "/></g></g></g><g fill="#dc3c4d" fill-opacity="1"><g transform="translate(15.193647, 73.124993)"><g><path d="M 2.5 -7.773438 L 10.273438 -7.773438 L 10.273438 -9.71875 L 2.5 -9.71875 Z M 3.46875 0 L 10.273438 0 L 10.273438 -1.945312 L 3.46875 -1.945312 C 2.941406 -1.945312 2.5 -2.375 2.5 -2.914062 L 2.5 -7.773438 L 0.554688 -7.773438 L 0.554688 -2.914062 C 0.554688 -1.320312 1.875 0 3.46875 0 Z M 3.457031 -3.886719 L 9.300781 -3.886719 L 9.300781 -5.832031 L 3.457031 -5.832031 Z M 3.457031 -3.886719 "/></g></g></g><g fill="#dc3c4d" fill-opacity="1"><g transform="translate(26.016198, 73.124993)"><g><path d="M 0.554688 -1.945312 L 2.5 -1.945312 L 2.5 -9.71875 L 0.554688 -9.71875 Z M 10.273438 -1.945312 L 12.214844 -1.945312 L 12.214844 -9.71875 L 10.273438 -9.71875 Z M 2.5 0 C 4.679688 0 5.359375 -1.984375 5.859375 -4.09375 C 5.96875 -4.59375 6.148438 -5.371094 6.386719 -5.761719 C 6.609375 -5.386719 6.789062 -4.652344 6.914062 -4.09375 C 7.441406 -2 8.050781 0 10.273438 0 L 10.273438 -1.945312 C 9.382812 -1.945312 9.09375 -3.34375 8.800781 -4.554688 C 8.425781 -6.121094 7.96875 -7.773438 6.386719 -7.773438 C 4.789062 -7.773438 4.386719 -6.175781 3.96875 -4.554688 C 3.691406 -3.402344 3.402344 -1.945312 2.5 -1.945312 Z M 2.5 0 "/></g></g></g><g fill="#dc3c4d" fill-opacity="1"><g transform="translate(38.781258, 73.124993)"><g/></g></g><g fill="#dc3c4d" fill-opacity="1"><g transform="translate(44.331287, 73.124993)"><g><path d="M 3.46875 0 L 9.441406 0 L 9.441406 -1.945312 L 3.46875 -1.945312 C 2.929688 -1.945312 2.5 -2.375 2.5 -2.914062 L 2.5 -9.71875 L 0.554688 -9.71875 L 0.554688 -2.914062 C 0.554688 -1.304688 1.859375 0 3.46875 0 Z M 3.46875 0 "/></g></g></g><g fill="#dc3c4d" fill-opacity="1"><g transform="translate(54.321338, 73.124993)"><g><path d="M 0.554688 -7.773438 L 9.441406 -7.773438 L 9.441406 -9.71875 L 0.554688 -9.71875 Z M 6.941406 0 L 9.441406 0 L 9.441406 -1.945312 L 6.941406 -1.945312 C 6.414062 -1.945312 5.96875 -2.375 5.96875 -2.914062 L 5.96875 -6.800781 L 4.039062 -6.800781 L 4.039062 -2.914062 C 4.039062 -1.320312 5.34375 0 6.941406 0 Z M 0.554688 0 L 4.027344 0 L 4.027344 -1.945312 L 0.554688 -1.945312 Z M 0.554688 0 "/></g></g></g><g fill="#dc3c4d" fill-opacity="1"><g transform="translate(64.311388, 73.124993)"><g><path d="M 8.328125 0 L 8.328125 -1.945312 C 7.496094 -1.945312 6.71875 -4.136719 6.316406 -5.207031 C 5.386719 -7.675781 4.527344 -9.71875 2.5 -9.71875 L 2.5 -7.773438 C 3.359375 -7.773438 4.082031 -5.636719 4.511719 -4.527344 C 5.359375 -2.304688 6.234375 0 8.328125 0 Z M 8.328125 -1.945312 L 10.273438 -1.945312 L 10.273438 -9.71875 L 8.328125 -9.71875 Z M 0.554688 0 L 2.5 0 L 2.5 -7.773438 L 0.554688 -7.773438 Z M 0.554688 0 "/></g></g></g><g fill="#dc3c4d" fill-opacity="1"><g transform="translate(75.133939, 73.124993)"><g><path d="M 3.46875 0 L 8.328125 0 L 8.328125 -1.945312 L 3.46875 -1.945312 C 2.929688 -1.945312 2.5 -2.375 2.5 -2.914062 L 2.5 -9.71875 L 0.554688 -9.71875 L 0.554688 -2.914062 C 0.554688 -1.304688 1.859375 0 3.46875 0 Z M 8.328125 -1.945312 L 10.273438 -1.945312 L 10.273438 -9.71875 L 8.328125 -9.71875 Z M 8.328125 -1.945312 "/></g></g></g><g fill="#dc3c4d" fill-opacity="1"><g transform="translate(85.95649, 73.124993)"><g><path d="M 0.554688 0 L 2.5 0 L 2.5 -2.636719 C 2.5 -3.179688 2.929688 -3.609375 3.46875 -3.609375 L 4.914062 -3.609375 L 4.914062 -5.554688 L 3.886719 -5.554688 C 2.929688 -5.554688 2.5 -5.984375 2.5 -6.941406 L 2.5 -9.71875 L 0.554688 -9.71875 L 0.554688 -6.941406 C 0.554688 -5.773438 0.847656 -5.09375 1.722656 -4.582031 C 0.847656 -4.066406 0.554688 -3.386719 0.554688 -2.636719 Z M 8.328125 0 L 10.273438 0 L 10.273438 -2.636719 C 10.273438 -3.386719 9.980469 -4.066406 9.105469 -4.582031 C 9.980469 -5.09375 10.273438 -5.773438 10.273438 -6.941406 L 10.273438 -9.71875 L 8.328125 -9.71875 L 8.328125 -6.941406 C 8.328125 -5.984375 7.898438 -5.554688 6.941406 -5.554688 L 5.898438 -5.554688 L 5.898438 -3.609375 L 7.359375 -3.609375 C 7.898438 -3.609375 8.328125 -3.179688 8.328125 -2.636719 Z M 8.328125 0 "/></g></g></g><g fill="#dc3c4d" fill-opacity="1"><g transform="translate(96.779041, 73.124993)"><g/></g></g><g fill="#dc3c4d" fill-opacity="1"><g transform="translate(102.32907, 73.124993)"><g><path d="M 3.46875 0 L 8.328125 0 L 8.328125 -1.945312 L 3.46875 -1.945312 C 2.929688 -1.945312 2.5 -2.375 2.5 -2.914062 L 2.5 -9.71875 L 0.554688 -9.71875 L 0.554688 -2.914062 C 0.554688 -1.304688 1.859375 0 3.46875 0 Z M 8.328125 -1.945312 L 10.273438 -1.945312 L 10.273438 -9.71875 L 8.328125 -9.71875 Z M 8.328125 -1.945312 "/></g></g></g><g fill="#dc3c4d" fill-opacity="1"><g transform="translate(113.151621, 73.124993)"><g><path d="M 8.328125 -6.800781 L 10.273438 -6.800781 C 10.273438 -8.414062 8.96875 -9.71875 7.359375 -9.71875 L 2.5 -9.71875 L 2.5 -7.773438 L 7.359375 -7.773438 C 7.898438 -7.773438 8.328125 -7.34375 8.328125 -6.800781 Z M 8.328125 -1.945312 L 10.273438 -1.945312 L 10.273438 -2.914062 C 10.273438 -4.527344 8.96875 -5.832031 7.359375 -5.832031 L 3.46875 -5.832031 C 2.941406 -5.832031 2.5 -6.261719 2.5 -6.800781 L 2.5 -7.773438 L 0.554688 -7.773438 L 0.554688 -6.800781 C 0.554688 -5.207031 1.875 -3.886719 3.46875 -3.886719 L 7.359375 -3.886719 C 7.898438 -3.886719 8.328125 -3.457031 8.328125 -2.914062 Z M 3.46875 0 L 8.328125 0 L 8.328125 -1.945312 L 3.46875 -1.945312 C 2.941406 -1.945312 2.5 -2.375 2.5 -2.914062 L 0.554688 -2.914062 C 0.554688 -1.320312 1.875 0 3.46875 0 Z M 3.46875 0 "/></g></g></g><g fill="#dc3c4d" fill-opacity="1"><g transform="translate(123.974172, 73.124993)"><g><path d="M 2.5 -7.773438 L 10.273438 -7.773438 L 10.273438 -9.71875 L 2.5 -9.71875 Z M 3.46875 0 L 10.273438 0 L 10.273438 -1.945312 L 3.46875 -1.945312 C 2.941406 -1.945312 2.5 -2.375 2.5 -2.914062 L 2.5 -7.773438 L 0.554688 -7.773438 L 0.554688 -2.914062 C 0.554688 -1.320312 1.875 0 3.46875 0 Z M 3.457031 -3.886719 L 9.300781 -3.886719 L 9.300781 -5.832031 L 3.457031 -5.832031 Z M 3.457031 -3.886719 "/></g></g></g><g fill="#dc3c4d" fill-opacity="1"><g transform="translate(134.796723, 73.124993)"><g><path d="M 8.328125 0 L 10.273438 0 L 10.273438 -1.945312 C 10.273438 -2.691406 9.980469 -3.375 9.523438 -3.886719 C 9.980469 -4.402344 10.273438 -5.082031 10.273438 -5.832031 L 10.273438 -6.800781 C 10.273438 -8.414062 8.96875 -9.71875 7.359375 -9.71875 L 2.5 -9.71875 L 2.5 -7.773438 L 7.359375 -7.773438 C 7.898438 -7.773438 8.328125 -7.34375 8.328125 -6.800781 L 8.328125 -5.832031 C 8.328125 -5.289062 7.898438 -4.859375 7.359375 -4.859375 L 3.46875 -4.859375 L 3.46875 -2.914062 L 7.359375 -2.914062 C 7.898438 -2.914062 8.328125 -2.484375 8.328125 -1.945312 Z M 0.554688 0 L 2.5 0 L 2.5 -7.773438 L 0.554688 -7.773438 Z M 0.554688 0 "/></g></g></g></svg>