<svg xmlns="http://www.w3.org/2000/svg" xmlns:xlink="http://www.w3.org/1999/xlink" width="100" zoomAndPan="magnify" viewBox="0 0 75 74.999997" height="100" preserveAspectRatio="xMidYMid meet" version="1.0"><defs><g/><clipPath id="c615d82514"><path d="M 24 15.871094 L 53 15.871094 L 53 36 L 24 36 Z M 24 15.871094 " clip-rule="nonzero"/></clipPath><clipPath id="d0deb269a7"><path d="M 14.066406 36 L 62.816406 36 L 62.816406 41 L 14.066406 41 Z M 14.066406 36 " clip-rule="nonzero"/></clipPath><clipPath id="6f182148db"><path d="M 19 42 L 37 42 L 37 59.371094 L 19 59.371094 Z M 19 42 " clip-rule="nonzero"/></clipPath><clipPath id="c26a5d27dd"><path d="M 40 42 L 58 42 L 58 59.371094 L 40 59.371094 Z M 40 42 " clip-rule="nonzero"/></clipPath></defs><path fill="#38b6ff" d="M 47.449219 17.191406 C 46.121094 16.527344 43.167969 15.863281 38.441406 17.191406 C 33.710938 15.863281 30.757812 16.527344 29.429688 17.191406 C 28.097656 17.859375 24.703125 34.484375 24.703125 34.484375 L 38.441406 32.621094 L 52.175781 34.484375 C 52.175781 34.484375 48.78125 17.859375 47.449219 17.191406 " fill-opacity="1" fill-rule="nonzero"/><g clip-path="url(#c615d82514)"><path fill="#292626" d="M 47.449219 17.191406 L 47.679688 16.730469 C 46.828125 16.304688 45.445312 15.910156 43.492188 15.910156 C 42.070312 15.910156 40.339844 16.121094 38.300781 16.695312 L 38.441406 17.191406 L 38.578125 16.695312 C 36.539062 16.121094 34.808594 15.910156 33.386719 15.910156 C 31.4375 15.910156 30.050781 16.304688 29.199219 16.730469 C 29.074219 16.796875 28.988281 16.875 28.914062 16.957031 C 28.773438 17.113281 28.667969 17.296875 28.554688 17.523438 C 28.347656 17.941406 28.132812 18.496094 27.90625 19.175781 C 27.515625 20.359375 27.085938 21.890625 26.667969 23.535156 C 25.40625 28.46875 24.199219 34.378906 24.199219 34.382812 C 24.164062 34.546875 24.210938 34.714844 24.324219 34.835938 C 24.441406 34.960938 24.605469 35.019531 24.769531 35 L 38.441406 33.144531 L 52.109375 35 C 52.273438 35.019531 52.441406 34.960938 52.554688 34.835938 C 52.667969 34.714844 52.714844 34.546875 52.679688 34.382812 C 52.679688 34.378906 51.832031 30.21875 50.8125 25.96875 C 50.304688 23.839844 49.753906 21.695312 49.242188 20.023438 C 48.984375 19.1875 48.742188 18.472656 48.507812 17.921875 C 48.390625 17.648438 48.277344 17.417969 48.160156 17.222656 C 48.097656 17.125 48.035156 17.039062 47.964844 16.957031 C 47.890625 16.875 47.804688 16.796875 47.679688 16.730469 L 47.449219 17.191406 L 47.222656 17.660156 L 47.300781 17.496094 L 47.1875 17.636719 C 47.191406 17.636719 47.199219 17.644531 47.222656 17.660156 L 47.300781 17.496094 L 47.1875 17.636719 L 47.210938 17.609375 L 47.1875 17.636719 L 47.210938 17.609375 L 47.1875 17.636719 L 47.203125 17.648438 C 47.242188 17.695312 47.324219 17.820312 47.414062 18.003906 C 47.582031 18.34375 47.789062 18.875 48.003906 19.527344 C 48.382812 20.671875 48.808594 22.191406 49.222656 23.820312 C 49.847656 26.265625 50.460938 28.957031 50.917969 31.039062 C 51.144531 32.082031 51.335938 32.96875 51.46875 33.597656 C 51.535156 33.910156 51.585938 34.15625 51.621094 34.328125 C 51.65625 34.496094 51.671875 34.589844 51.671875 34.589844 L 52.175781 34.484375 L 52.246094 33.972656 L 38.507812 32.109375 C 38.460938 32.105469 38.417969 32.105469 38.371094 32.109375 L 24.632812 33.972656 L 24.703125 34.484375 L 25.207031 34.589844 C 25.207031 34.589844 25.21875 34.523438 25.246094 34.402344 C 25.433594 33.492188 26.292969 29.375 27.257812 25.417969 C 27.742188 23.4375 28.25 21.5 28.714844 20.027344 C 28.945312 19.292969 29.164062 18.675781 29.355469 18.242188 C 29.449219 18.023438 29.539062 17.855469 29.605469 17.75 C 29.640625 17.695312 29.667969 17.660156 29.683594 17.644531 L 29.691406 17.636719 L 29.644531 17.578125 L 29.6875 17.640625 L 29.691406 17.636719 L 29.644531 17.578125 L 29.6875 17.640625 L 29.5625 17.464844 L 29.65625 17.660156 L 29.6875 17.640625 L 29.5625 17.464844 L 29.65625 17.660156 C 30.339844 17.316406 31.574219 16.941406 33.386719 16.945312 C 34.710938 16.945312 36.34375 17.140625 38.300781 17.691406 C 38.390625 17.71875 38.488281 17.71875 38.578125 17.691406 C 40.535156 17.140625 42.167969 16.945312 43.492188 16.945312 C 45.304688 16.941406 46.539062 17.316406 47.222656 17.65625 L 47.449219 17.191406 " fill-opacity="1" fill-rule="nonzero"/></g><path fill="#ffde59" d="M 51.542969 29.828125 L 25.335938 29.828125 L 23.089844 37.144531 L 53.789062 37.144531 L 51.542969 29.828125 " fill-opacity="1" fill-rule="nonzero"/><path fill="#292626" d="M 51.542969 29.828125 L 51.542969 29.3125 L 25.335938 29.3125 C 25.109375 29.3125 24.910156 29.460938 24.84375 29.675781 L 22.597656 36.992188 C 22.550781 37.148438 22.578125 37.320312 22.675781 37.453125 C 22.773438 37.585938 22.925781 37.664062 23.089844 37.664062 L 53.789062 37.664062 C 53.953125 37.664062 54.105469 37.585938 54.203125 37.453125 C 54.300781 37.320312 54.328125 37.148438 54.28125 36.992188 L 52.035156 29.675781 C 51.96875 29.460938 51.769531 29.3125 51.542969 29.3125 L 51.542969 29.828125 L 51.054688 29.980469 L 53.09375 36.628906 L 23.785156 36.628906 L 25.714844 30.347656 L 51.542969 30.347656 L 51.542969 29.828125 L 51.054688 29.980469 L 51.542969 29.828125 " fill-opacity="1" fill-rule="nonzero"/><g clip-path="url(#d0deb269a7)"><path fill="#38b6ff" d="M 16.445312 40.320312 C 15.433594 40.320312 14.609375 39.492188 14.609375 38.476562 C 14.609375 37.457031 15.433594 36.628906 16.445312 36.628906 L 60.433594 36.628906 C 61.445312 36.628906 62.269531 37.457031 62.269531 38.476562 C 62.269531 39.492188 61.445312 40.320312 60.433594 40.320312 L 16.445312 40.320312 " fill-opacity="1" fill-rule="nonzero"/><path fill="#292626" d="M 60.433594 36.109375 L 16.445312 36.109375 C 15.152344 36.109375 14.097656 37.171875 14.097656 38.476562 C 14.097656 39.777344 15.152344 40.839844 16.445312 40.839844 L 60.433594 40.839844 C 61.730469 40.839844 62.78125 39.777344 62.78125 38.476562 C 62.78125 37.171875 61.730469 36.109375 60.433594 36.109375 Z M 60.433594 37.144531 C 61.164062 37.144531 61.753906 37.738281 61.753906 38.476562 C 61.753906 39.210938 61.164062 39.804688 60.433594 39.804688 L 16.445312 39.804688 C 15.714844 39.804688 15.125 39.210938 15.125 38.476562 C 15.125 37.738281 15.714844 37.144531 16.445312 37.144531 L 60.433594 37.144531 " fill-opacity="1" fill-rule="nonzero"/></g><path fill="#292626" d="M 34.324219 50.855469 L 34.234375 50.761719 L 34.324219 50.855469 L 34.234375 50.761719 L 34.324219 50.855469 C 34.332031 50.84375 34.804688 50.375 35.574219 49.914062 C 36.339844 49.457031 37.386719 49.015625 38.546875 49.015625 C 39.140625 49.015625 39.765625 49.128906 40.414062 49.410156 C 41.066406 49.691406 41.75 50.148438 42.445312 50.855469 C 42.644531 51.058594 42.972656 51.058594 43.171875 50.855469 C 43.375 50.65625 43.375 50.328125 43.171875 50.125 C 42.394531 49.339844 41.605469 48.800781 40.820312 48.460938 C 40.039062 48.117188 39.269531 47.980469 38.546875 47.980469 C 37.828125 47.980469 37.160156 48.117188 36.5625 48.320312 C 35.667969 48.621094 34.933594 49.070312 34.417969 49.441406 C 33.90625 49.8125 33.609375 50.109375 33.59375 50.125 C 33.394531 50.328125 33.394531 50.65625 33.597656 50.855469 C 33.796875 51.058594 34.125 51.058594 34.324219 50.855469 " fill-opacity="1" fill-rule="nonzero"/><path fill="#38b6ff" d="M 27.546875 58.855469 C 23.148438 58.855469 19.570312 55.25 19.570312 50.824219 C 19.570312 46.390625 23.148438 42.789062 27.546875 42.789062 C 31.949219 42.789062 35.527344 46.390625 35.527344 50.824219 C 35.527344 55.25 31.949219 58.855469 27.546875 58.855469 " fill-opacity="1" fill-rule="nonzero"/><g clip-path="url(#6f182148db)"><path fill="#292626" d="M 27.546875 42.273438 C 22.867188 42.273438 19.058594 46.109375 19.058594 50.824219 C 19.058594 55.539062 22.867188 59.371094 27.546875 59.371094 C 32.230469 59.371094 36.039062 55.539062 36.039062 50.824219 C 36.039062 46.109375 32.230469 42.273438 27.546875 42.273438 Z M 27.546875 43.308594 C 31.671875 43.308594 35.011719 46.671875 35.011719 50.824219 C 35.011719 54.972656 31.671875 58.335938 27.546875 58.335938 C 23.425781 58.335938 20.085938 54.972656 20.085938 50.824219 C 20.085938 46.671875 23.425781 43.308594 27.546875 43.308594 " fill-opacity="1" fill-rule="nonzero"/></g><path fill="#ffde59" d="M 33.054688 50.824219 C 33.054688 53.882812 30.589844 56.367188 27.546875 56.367188 C 24.507812 56.367188 22.042969 53.882812 22.042969 50.824219 C 22.042969 47.761719 24.507812 45.277344 27.546875 45.277344 C 30.589844 45.277344 33.054688 47.761719 33.054688 50.824219 " fill-opacity="1" fill-rule="nonzero"/><path fill="#292626" d="M 33.054688 50.824219 L 32.539062 50.824219 C 32.539062 52.210938 31.984375 53.464844 31.078125 54.375 C 30.171875 55.285156 28.925781 55.847656 27.546875 55.847656 C 26.167969 55.847656 24.925781 55.285156 24.019531 54.375 C 23.113281 53.464844 22.558594 52.210938 22.558594 50.824219 C 22.558594 49.433594 23.113281 48.179688 24.019531 47.269531 C 24.925781 46.359375 26.167969 45.796875 27.546875 45.796875 C 28.925781 45.796875 30.171875 46.359375 31.078125 47.269531 C 31.984375 48.179688 32.539062 49.433594 32.539062 50.824219 L 33.570312 50.824219 C 33.570312 47.476562 30.871094 44.761719 27.546875 44.761719 C 24.222656 44.761719 21.527344 47.476562 21.527344 50.824219 C 21.527344 54.171875 24.222656 56.882812 27.546875 56.882812 C 30.871094 56.882812 33.570312 54.171875 33.570312 50.824219 L 33.054688 50.824219 " fill-opacity="1" fill-rule="nonzero"/><path fill="#38b6ff" d="M 49.332031 58.855469 C 44.933594 58.855469 41.351562 55.25 41.351562 50.824219 C 41.351562 46.390625 44.933594 42.789062 49.332031 42.789062 C 53.730469 42.789062 57.308594 46.390625 57.308594 50.824219 C 57.308594 55.25 53.730469 58.855469 49.332031 58.855469 " fill-opacity="1" fill-rule="nonzero"/><g clip-path="url(#c26a5d27dd)"><path fill="#292626" d="M 49.332031 42.273438 C 44.648438 42.273438 40.839844 46.109375 40.839844 50.824219 C 40.839844 55.539062 44.648438 59.371094 49.332031 59.371094 C 54.015625 59.371094 57.820312 55.539062 57.820312 50.824219 C 57.820312 46.109375 54.015625 42.273438 49.332031 42.273438 Z M 49.332031 43.308594 C 53.453125 43.308594 56.792969 46.671875 56.792969 50.824219 C 56.792969 54.972656 53.453125 58.335938 49.332031 58.335938 C 45.207031 58.335938 41.867188 54.972656 41.867188 50.824219 C 41.867188 46.671875 45.207031 43.308594 49.332031 43.308594 " fill-opacity="1" fill-rule="nonzero"/></g><path fill="#ffde59" d="M 54.835938 50.824219 C 54.835938 53.882812 52.371094 56.367188 49.332031 56.367188 C 46.289062 56.367188 43.824219 53.882812 43.824219 50.824219 C 43.824219 47.761719 46.289062 45.277344 49.332031 45.277344 C 52.371094 45.277344 54.835938 47.761719 54.835938 50.824219 " fill-opacity="1" fill-rule="nonzero"/><path fill="#292626" d="M 54.835938 50.824219 L 54.324219 50.824219 C 54.324219 52.210938 53.765625 53.464844 52.859375 54.375 C 51.957031 55.285156 50.710938 55.847656 49.332031 55.847656 C 47.953125 55.847656 46.707031 55.285156 45.800781 54.375 C 44.898438 53.464844 44.339844 52.210938 44.339844 50.824219 C 44.339844 49.433594 44.898438 48.179688 45.800781 47.269531 C 46.707031 46.359375 47.953125 45.796875 49.332031 45.796875 C 50.710938 45.796875 51.957031 46.359375 52.859375 47.269531 C 53.765625 48.179688 54.324219 49.433594 54.324219 50.824219 L 55.351562 50.824219 C 55.351562 47.476562 52.65625 44.761719 49.332031 44.761719 C 46.007812 44.761719 43.3125 47.476562 43.3125 50.824219 C 43.3125 54.171875 46.007812 56.882812 49.332031 56.882812 C 52.65625 56.882812 55.351562 54.171875 55.351562 50.824219 L 54.835938 50.824219 " fill-opacity="1" fill-rule="nonzero"/><path fill="#ffde59" d="M 71.171875 40.171875 C 71.359375 40.1875 71.539062 40.238281 71.707031 40.320312 C 71.875 40.40625 72.019531 40.519531 72.144531 40.660156 C 72.269531 40.804688 72.359375 40.964844 72.421875 41.144531 C 72.484375 41.320312 72.507812 41.503906 72.496094 41.691406 C 72.394531 42.738281 72.242188 43.777344 72.042969 44.8125 C 71.84375 45.84375 71.597656 46.863281 71.300781 47.875 C 71.007812 48.882812 70.671875 49.878906 70.285156 50.855469 C 69.902344 51.832031 69.472656 52.792969 69 53.730469 C 68.527344 54.671875 68.015625 55.585938 67.457031 56.476562 C 66.902344 57.367188 66.304688 58.230469 65.667969 59.066406 C 65.035156 59.90625 64.359375 60.710938 63.652344 61.484375 C 62.941406 62.257812 62.199219 63 61.421875 63.703125 C 60.644531 64.410156 59.835938 65.078125 58.996094 65.710938 C 58.15625 66.339844 57.289062 66.933594 56.398438 67.484375 C 55.503906 68.035156 54.585938 68.546875 53.648438 69.011719 C 52.707031 69.480469 51.75 69.902344 50.769531 70.28125 C 49.789062 70.65625 48.796875 70.992188 47.789062 71.277344 C 46.777344 71.5625 45.757812 71.804688 44.726562 71.996094 C 43.695312 72.1875 42.65625 72.332031 41.613281 72.429688 C 40.566406 72.527344 39.523438 72.578125 38.472656 72.578125 C 37.421875 72.578125 36.375 72.53125 35.332031 72.433594 C 34.289062 72.335938 33.25 72.191406 32.21875 72 C 31.1875 71.808594 30.167969 71.570312 29.15625 71.285156 C 28.148438 71 27.152344 70.667969 26.175781 70.289062 C 25.195312 69.910156 24.234375 69.488281 23.292969 69.023438 C 22.355469 68.558594 21.4375 68.050781 20.542969 67.5 C 19.648438 66.949219 18.785156 66.355469 17.945312 65.726562 C 17.105469 65.09375 16.296875 64.425781 15.519531 63.722656 C 14.738281 63.015625 13.996094 62.277344 13.285156 61.503906 C 12.574219 60.730469 11.902344 59.925781 11.265625 59.089844 C 10.628906 58.253906 10.03125 57.390625 9.476562 56.5 C 8.917969 55.609375 8.402344 54.691406 7.929688 53.753906 C 7.457031 52.816406 7.027344 51.859375 6.640625 50.878906 C 6.257812 49.902344 5.917969 48.90625 5.625 47.898438 C 5.328125 46.890625 5.082031 45.867188 4.882812 44.835938 C 4.683594 43.804688 4.53125 42.765625 4.425781 41.71875 C 4.414062 41.53125 4.4375 41.347656 4.5 41.167969 C 4.558594 40.988281 4.652344 40.828125 4.777344 40.6875 C 4.898438 40.546875 5.046875 40.429688 5.214844 40.347656 C 5.382812 40.261719 5.558594 40.210938 5.746094 40.195312 L 8.621094 40.03125 C 8.816406 40.011719 9.003906 40.035156 9.1875 40.09375 C 9.371094 40.15625 9.539062 40.25 9.683594 40.378906 C 9.832031 40.503906 9.945312 40.65625 10.03125 40.832031 C 10.117188 41.003906 10.167969 41.1875 10.179688 41.382812 C 10.273438 42.246094 10.40625 43.105469 10.578125 43.957031 C 10.75 44.808594 10.960938 45.652344 11.210938 46.484375 C 11.460938 47.316406 11.746094 48.136719 12.070312 48.945312 C 12.394531 49.75 12.753906 50.539062 13.152344 51.3125 C 13.546875 52.085938 13.976562 52.839844 14.441406 53.574219 C 14.90625 54.308594 15.40625 55.019531 15.933594 55.707031 C 16.464844 56.398438 17.023438 57.058594 17.613281 57.695312 C 18.207031 58.332031 18.824219 58.941406 19.46875 59.523438 C 20.117188 60.101562 20.785156 60.652344 21.480469 61.171875 C 22.179688 61.691406 22.898438 62.175781 23.636719 62.628906 C 24.378906 63.082031 25.136719 63.5 25.914062 63.882812 C 26.695312 64.265625 27.488281 64.613281 28.296875 64.925781 C 29.109375 65.234375 29.929688 65.507812 30.765625 65.742188 C 31.601562 65.976562 32.445312 66.175781 33.296875 66.332031 C 34.152344 66.492188 35.007812 66.609375 35.875 66.6875 C 36.738281 66.765625 37.601562 66.804688 38.46875 66.804688 C 39.335938 66.804688 40.203125 66.765625 41.066406 66.6875 C 41.929688 66.605469 42.789062 66.488281 43.640625 66.328125 C 44.496094 66.171875 45.339844 65.972656 46.171875 65.738281 C 47.007812 65.5 47.832031 65.226562 48.640625 64.917969 C 49.449219 64.605469 50.246094 64.257812 51.023438 63.875 C 51.800781 63.492188 52.5625 63.070312 53.300781 62.617188 C 54.039062 62.164062 54.757812 61.679688 55.453125 61.160156 C 56.148438 60.640625 56.820312 60.089844 57.464844 59.507812 C 58.109375 58.925781 58.730469 58.316406 59.320312 57.679688 C 59.910156 57.042969 60.46875 56.378906 60.996094 55.691406 C 61.527344 55.003906 62.023438 54.292969 62.488281 53.558594 C 62.953125 52.824219 63.382812 52.070312 63.777344 51.292969 C 64.171875 50.519531 64.53125 49.730469 64.855469 48.925781 C 65.179688 48.117188 65.464844 47.296875 65.714844 46.464844 C 65.964844 45.632812 66.171875 44.789062 66.34375 43.9375 C 66.515625 43.085938 66.648438 42.226562 66.742188 41.363281 C 66.753906 41.167969 66.800781 40.984375 66.886719 40.808594 C 66.972656 40.632812 67.089844 40.484375 67.234375 40.355469 C 67.382812 40.226562 67.546875 40.132812 67.730469 40.074219 C 67.917969 40.011719 68.105469 39.992188 68.296875 40.007812 Z M 71.171875 40.171875 " fill-opacity="1" fill-rule="nonzero"/><g fill="#000000" fill-opacity="1"><g transform="translate(6.124008, 41.745127)"><g><path d="M 3.3125 2.59375 L 3.53125 3.71875 L 2.953125 3.8125 L 2.921875 3.6875 L 0.65625 3.546875 L 0.46875 2.5 L 1.921875 1.90625 L 1.90625 1.859375 L 0.328125 1.796875 L 0.140625 0.75 L 2.203125 -0.21875 L 2.1875 -0.359375 L 2.765625 -0.453125 L 3 0.859375 L 2.421875 0.953125 L 2.390625 0.8125 L 1.53125 1.125 L 1.53125 1.15625 L 3.0625 1.21875 L 3.25 2.234375 L 1.84375 2.828125 L 1.84375 2.859375 L 2.765625 2.828125 L 2.734375 2.6875 Z M 3.3125 2.59375 "/></g></g></g><g fill="#000000" fill-opacity="1"><g transform="translate(7.029119, 46.283384)"><g><path d="M 0.015625 0.078125 L 0.578125 -0.09375 L 0.640625 0.0625 L 2.1875 -0.40625 L 2.125 -0.5625 L 2.6875 -0.734375 L 3.40625 1.578125 L 2.359375 1.890625 L 2.125 1.109375 L 2.609375 0.96875 L 2.46875 0.546875 L 1.921875 0.703125 L 2.03125 1.03125 L 1.65625 1.15625 L 1.546875 0.828125 L 0.921875 1.015625 L 1.0625 1.4375 L 1.609375 1.265625 L 1.84375 2.046875 L 0.734375 2.390625 Z M 0.015625 0.078125 "/></g></g></g><g fill="#000000" fill-opacity="1"><g transform="translate(7.864751, 48.974848)"><g><path d="M 0.03125 0.078125 L 0.578125 -0.140625 L 0.640625 0.015625 L 2.140625 -0.59375 L 2.078125 -0.75 L 2.625 -0.96875 L 3.53125 1.265625 L 2.515625 1.671875 L 2.203125 0.921875 L 2.671875 0.734375 L 2.515625 0.328125 L 1.984375 0.546875 L 2.109375 0.859375 L 1.734375 1 L 1.609375 0.6875 L 1.015625 0.9375 L 1.171875 1.34375 L 1.703125 1.125 L 2.015625 1.875 L 0.9375 2.3125 Z M 0.03125 0.078125 "/></g></g></g><g fill="#000000" fill-opacity="1"><g transform="translate(8.92509, 51.595793)"><g><path d="M 1.796875 2.1875 L 1.875 2.34375 L 1.34375 2.609375 L 0.90625 1.75 L 1.640625 0.75 L 1.453125 0.65625 L 1.109375 0.84375 L 1.1875 1.015625 L 0.65625 1.28125 L 0.03125 0.0625 L 0.5625 -0.203125 L 0.640625 -0.046875 L 2.0625 -0.796875 L 1.984375 -0.953125 L 2.515625 -1.21875 L 3.140625 0 L 2.609375 0.265625 L 2.53125 0.09375 L 2.125 0.3125 L 2.78125 0.59375 L 2.6875 0.40625 L 3.21875 0.140625 L 3.828125 1.3125 L 3.296875 1.578125 L 3.21875 1.421875 L 2.5 1.125 Z M 1.796875 2.1875 "/></g></g></g><g fill="#000000" fill-opacity="1"><g transform="translate(10.446263, 54.484879)"><g><path d="M 0.046875 0.0625 L 0.546875 -0.265625 L 0.640625 -0.125 L 2 -0.984375 L 1.90625 -1.125 L 2.40625 -1.453125 L 3.71875 0.59375 L 2.796875 1.1875 L 2.34375 0.5 L 2.765625 0.234375 L 2.53125 -0.140625 L 2.046875 0.15625 L 2.234375 0.4375 L 1.890625 0.65625 L 1.703125 0.375 L 1.171875 0.71875 L 1.40625 1.09375 L 1.875 0.796875 L 2.328125 1.484375 L 1.359375 2.109375 Z M 0.046875 0.0625 "/></g></g></g><g fill="#000000" fill-opacity="1"><g transform="translate(11.972964, 56.874109)"><g><path d="M 3.515625 -0.0625 L 4.25 0.875 L 3.78125 1.234375 L 3.671875 1.078125 L 1.953125 2.453125 L 1.328125 1.65625 L 1.9375 -0.171875 L 1.140625 0.46875 L 1.25 0.609375 L 0.78125 0.984375 L 0.046875 0.0625 L 0.515625 -0.3125 L 0.625 -0.171875 L 1.875 -1.171875 L 1.765625 -1.3125 L 2.234375 -1.671875 L 3.046875 -0.65625 L 2.5 0.96875 L 3.15625 0.4375 L 3.046875 0.296875 Z M 3.515625 -0.0625 "/></g></g></g><g fill="#000000" fill-opacity="1"><g transform="translate(14.273352, 59.726046)"><g><path d="M 0.484375 -0.359375 L 0.59375 -0.25 L 1.75 -1.375 L 1.640625 -1.484375 L 2.0625 -1.890625 L 3.078125 -0.859375 C 3.347656 -0.578125 3.488281 -0.273438 3.5 0.046875 C 3.519531 0.367188 3.347656 0.707031 2.984375 1.0625 C 2.640625 1.40625 2.300781 1.566406 1.96875 1.546875 C 1.644531 1.523438 1.347656 1.375 1.078125 1.09375 L 0.0625 0.0625 Z M 1.453125 0.625 C 1.503906 0.6875 1.554688 0.71875 1.609375 0.71875 C 1.671875 0.71875 1.734375 0.679688 1.796875 0.609375 L 2.5625 -0.140625 C 2.695312 -0.265625 2.710938 -0.382812 2.609375 -0.5 L 2.453125 -0.65625 L 1.296875 0.46875 Z M 1.453125 0.625 "/></g></g></g><g fill="#000000" fill-opacity="1"><g transform="translate(16.489315, 61.926821)"><g/></g></g><g fill="#000000" fill-opacity="1"><g transform="translate(17.454111, 62.811351)"><g><path d="M 3.34375 0.171875 L 2.859375 -0.203125 L 3.03125 -0.421875 L 2.84375 -0.5625 L 1.859375 0.703125 L 2.0625 0.859375 L 1.703125 1.328125 L 0.5 0.390625 L 0.859375 -0.078125 L 1.0625 0.078125 L 2.046875 -1.1875 L 1.875 -1.328125 L 1.703125 -1.109375 L 1.203125 -1.484375 L 1.75 -2.171875 L 3.890625 -0.515625 Z M 3.34375 0.171875 "/></g></g></g><g fill="#000000" fill-opacity="1"><g transform="translate(19.887631, 64.687874)"><g><path d="M 3.671875 -0.28125 L 3.515625 -0.390625 L 2.65625 0.96875 L 2.8125 1.078125 L 2.5 1.578125 L 1.34375 0.84375 L 1.65625 0.34375 L 1.8125 0.4375 L 2.125 -0.0625 L 1.6875 -0.328125 L 1.375 0.171875 L 1.53125 0.265625 L 1.21875 0.765625 L 0.0625 0.046875 L 0.375 -0.453125 L 0.53125 -0.359375 L 1.390625 -1.71875 L 1.234375 -1.8125 L 1.546875 -2.328125 L 2.703125 -1.609375 L 2.390625 -1.09375 L 2.234375 -1.1875 L 1.9375 -0.734375 L 2.375 -0.46875 L 2.671875 -0.921875 L 2.515625 -1.015625 L 2.828125 -1.53125 L 3.984375 -0.796875 Z M 3.671875 -0.28125 "/></g></g></g><g fill="#000000" fill-opacity="1"><g transform="translate(22.681294, 66.425632)"><g><path d="M 0.328125 -0.5 L 0.484375 -0.421875 L 1.203125 -1.859375 L 1.046875 -1.9375 L 1.3125 -2.46875 L 2.78125 -1.734375 C 3.0625 -1.597656 3.242188 -1.4375 3.328125 -1.25 C 3.421875 -1.070312 3.40625 -0.851562 3.28125 -0.59375 C 3.207031 -0.445312 3.113281 -0.332031 3 -0.25 C 2.894531 -0.175781 2.78125 -0.144531 2.65625 -0.15625 L 2.640625 -0.125 C 2.828125 0.0078125 2.867188 0.191406 2.765625 0.421875 L 2.640625 0.65625 L 2.78125 0.71875 L 2.515625 1.25 L 1.5 0.75 L 1.875 0 C 1.914062 -0.0820312 1.929688 -0.148438 1.921875 -0.203125 C 1.921875 -0.253906 1.894531 -0.300781 1.84375 -0.34375 C 1.800781 -0.382812 1.734375 -0.429688 1.640625 -0.484375 L 1.390625 0.03125 L 1.609375 0.140625 L 1.34375 0.671875 L 0.0625 0.03125 Z M 2.015625 -0.796875 C 2.078125 -0.753906 2.132812 -0.742188 2.1875 -0.765625 C 2.238281 -0.796875 2.28125 -0.847656 2.3125 -0.921875 L 2.359375 -1.03125 C 2.398438 -1.101562 2.410156 -1.160156 2.390625 -1.203125 C 2.378906 -1.242188 2.34375 -1.285156 2.28125 -1.328125 L 2.109375 -1.40625 L 1.84375 -0.875 Z M 2.015625 -0.796875 "/></g></g></g><g fill="#000000" fill-opacity="1"><g transform="translate(25.485865, 67.784781)"><g><path d="M 0.078125 0.03125 L 0.296875 -0.515625 L 0.453125 -0.453125 L 1.0625 -1.953125 L 0.90625 -2.015625 L 1.140625 -2.5625 L 2.390625 -2.046875 L 2.15625 -1.5 L 1.984375 -1.578125 L 1.375 -0.078125 L 1.546875 0 L 1.328125 0.546875 Z M 0.078125 0.03125 "/></g></g></g><g fill="#000000" fill-opacity="1"><g transform="translate(27.094396, 68.448229)"><g><path d="M 0.078125 0.03125 L 0.265625 -0.53125 L 0.421875 -0.484375 L 0.921875 -2.015625 L 0.765625 -2.0625 L 0.953125 -2.625 L 2.390625 -2.15625 L 2.203125 -1.59375 L 1.875 -1.703125 L 1.375 -0.171875 L 1.6875 -0.0625 L 1.796875 -0.375 L 2.46875 -0.15625 L 2.171875 0.71875 Z M 0.078125 0.03125 "/></g></g></g><g fill="#000000" fill-opacity="1"><g transform="translate(29.558891, 69.257724)"><g><path d="M 0.078125 0.015625 L 0.21875 -0.5625 L 0.390625 -0.515625 L 0.78125 -2.078125 L 0.609375 -2.125 L 0.75 -2.703125 L 2.21875 -2.34375 L 2.078125 -1.765625 L 1.75 -1.84375 L 1.359375 -0.28125 L 1.671875 -0.203125 L 1.75 -0.515625 L 2.453125 -0.34375 L 2.234375 0.546875 Z M 0.078125 0.015625 "/></g></g></g><g fill="#000000" fill-opacity="1"><g transform="translate(32.081219, 69.869784)"><g><path d="M 1.171875 0.234375 C 0.941406 0.203125 0.726562 0.148438 0.53125 0.078125 C 0.332031 0.00390625 0.179688 -0.0625 0.078125 -0.125 L 0.203125 -0.828125 L 0.984375 -0.703125 C 0.972656 -0.628906 0.976562 -0.570312 1 -0.53125 C 1.03125 -0.488281 1.085938 -0.460938 1.171875 -0.453125 C 1.253906 -0.441406 1.3125 -0.445312 1.34375 -0.46875 C 1.375 -0.488281 1.394531 -0.519531 1.40625 -0.5625 C 1.414062 -0.601562 1.40625 -0.640625 1.375 -0.671875 C 1.34375 -0.703125 1.289062 -0.738281 1.21875 -0.78125 L 0.9375 -0.9375 C 0.6875 -1.070312 0.515625 -1.21875 0.421875 -1.375 C 0.335938 -1.53125 0.3125 -1.722656 0.34375 -1.953125 C 0.394531 -2.234375 0.519531 -2.429688 0.71875 -2.546875 C 0.925781 -2.660156 1.242188 -2.679688 1.671875 -2.609375 C 1.878906 -2.578125 2.066406 -2.523438 2.234375 -2.453125 C 2.410156 -2.390625 2.550781 -2.3125 2.65625 -2.21875 L 2.546875 -1.578125 L 1.84375 -1.6875 C 1.863281 -1.8125 1.800781 -1.882812 1.65625 -1.90625 C 1.582031 -1.925781 1.523438 -1.925781 1.484375 -1.90625 C 1.453125 -1.894531 1.4375 -1.867188 1.4375 -1.828125 C 1.425781 -1.785156 1.4375 -1.742188 1.46875 -1.703125 C 1.5 -1.671875 1.550781 -1.640625 1.625 -1.609375 L 1.921875 -1.46875 C 2.160156 -1.34375 2.320312 -1.203125 2.40625 -1.046875 C 2.5 -0.890625 2.53125 -0.703125 2.5 -0.484375 C 2.445312 -0.191406 2.3125 0.015625 2.09375 0.140625 C 1.875 0.265625 1.566406 0.296875 1.171875 0.234375 Z M 1.171875 0.234375 "/></g></g></g><g fill="#000000" fill-opacity="1"><g transform="translate(34.69832, 70.265251)"><g/></g></g><g fill="#000000" fill-opacity="1"><g transform="translate(35.974117, 70.391573)"><g><path d="M 0.171875 -0.71875 L 0.203125 -1.296875 L 1.359375 -1.21875 L 1.328125 -0.640625 Z M 0.171875 -0.71875 "/></g></g></g><g fill="#000000" fill-opacity="1"><g transform="translate(37.574413, 70.471696)"><g/></g></g><g fill="#000000" fill-opacity="1"><g transform="translate(38.894532, 70.520596)"><g><path d="M 1.953125 -2.9375 L 3.140625 -3.015625 L 3.1875 -2.421875 L 3 -2.40625 L 3.140625 -0.203125 L 2.125 -0.140625 L 0.96875 -1.703125 L 1.046875 -0.671875 L 1.21875 -0.671875 L 1.25 -0.078125 L 0.078125 0 L 0.046875 -0.59375 L 0.21875 -0.609375 L 0.109375 -2.21875 L -0.0625 -2.203125 L -0.109375 -2.796875 L 1.1875 -2.890625 L 2.21875 -1.515625 L 2.171875 -2.359375 L 2 -2.34375 Z M 1.953125 -2.9375 "/></g></g></g><g fill="#000000" fill-opacity="1"><g transform="translate(42.541759, 70.247408)"><g><path d="M 0.078125 -0.015625 L -0.015625 -0.59375 L 0.15625 -0.625 L -0.109375 -2.21875 L -0.28125 -2.1875 L -0.375 -2.78125 L 2.015625 -3.171875 L 2.1875 -2.09375 L 1.390625 -1.96875 L 1.3125 -2.453125 L 0.875 -2.375 L 0.96875 -1.828125 L 1.296875 -1.890625 L 1.359375 -1.484375 L 1.03125 -1.421875 L 1.140625 -0.78125 L 1.578125 -0.859375 L 1.484375 -1.421875 L 2.28125 -1.546875 L 2.46875 -0.40625 Z M 0.078125 -0.015625 "/></g></g></g><g fill="#000000" fill-opacity="1"><g transform="translate(45.363831, 69.811225)"><g><path d="M 2.234375 -3.5625 L 3.34375 -3.875 L 3.515625 -3.296875 L 3.390625 -3.265625 L 3.46875 -1 L 2.453125 -0.703125 L 1.703125 -2.09375 L 1.671875 -2.078125 L 1.75 -0.5 L 0.734375 -0.21875 L -0.421875 -2.15625 L -0.5625 -2.125 L -0.734375 -2.703125 L 0.546875 -3.0625 L 0.71875 -2.484375 L 0.578125 -2.453125 L 0.96875 -1.625 L 0.984375 -1.640625 L 0.90625 -3.171875 L 1.890625 -3.453125 L 2.625 -2.109375 L 2.65625 -2.125 L 2.546875 -3.015625 L 2.40625 -2.984375 Z M 2.234375 -3.5625 "/></g></g></g><g fill="#000000" fill-opacity="1"><g transform="translate(49.797757, 68.468176)"><g><path d="M -0.15625 -0.578125 L 0 -0.640625 L -0.625 -2.125 L -0.78125 -2.0625 L -1.015625 -2.609375 L 0.484375 -3.25 C 0.765625 -3.363281 1.007812 -3.394531 1.21875 -3.34375 C 1.425781 -3.289062 1.570312 -3.160156 1.65625 -2.953125 C 1.707031 -2.828125 1.722656 -2.703125 1.703125 -2.578125 C 1.679688 -2.460938 1.632812 -2.367188 1.5625 -2.296875 C 1.5 -2.222656 1.4375 -2.160156 1.375 -2.109375 L 1.390625 -2.078125 C 1.546875 -2.117188 1.703125 -2.125 1.859375 -2.09375 C 2.015625 -2.070312 2.140625 -1.945312 2.234375 -1.71875 C 2.328125 -1.488281 2.3125 -1.285156 2.1875 -1.109375 C 2.0625 -0.929688 1.859375 -0.785156 1.578125 -0.671875 L 0.078125 -0.03125 Z M 0.71875 -2.046875 C 0.78125 -2.078125 0.816406 -2.113281 0.828125 -2.15625 C 0.847656 -2.207031 0.84375 -2.269531 0.8125 -2.34375 L 0.765625 -2.453125 C 0.734375 -2.523438 0.691406 -2.570312 0.640625 -2.59375 C 0.597656 -2.625 0.546875 -2.625 0.484375 -2.59375 L 0.296875 -2.515625 L 0.53125 -1.96875 Z M 1.140625 -1.125 C 1.191406 -1.144531 1.226562 -1.175781 1.25 -1.21875 C 1.28125 -1.269531 1.28125 -1.332031 1.25 -1.40625 L 1.1875 -1.5625 C 1.15625 -1.625 1.113281 -1.664062 1.0625 -1.6875 C 1.007812 -1.707031 0.957031 -1.707031 0.90625 -1.6875 L 0.6875 -1.59375 L 0.921875 -1.03125 Z M 1.140625 -1.125 "/></g></g></g><g fill="#000000" fill-opacity="1"><g transform="translate(52.603148, 67.271347)"><g><path d="M 0.109375 -3.25 L 1.09375 -3.765625 L 1.375 -3.234375 L 1.25 -3.171875 L 1.21875 -1.765625 L 1.390625 -1.421875 L 1.5625 -1.5 L 1.84375 -0.984375 L 0.640625 -0.34375 L 0.359375 -0.859375 L 0.515625 -0.9375 L 0.34375 -1.28125 L -0.875 -2.03125 L -1 -1.953125 L -1.28125 -2.484375 L -0.0625 -3.15625 L 0.21875 -2.625 L 0.109375 -2.5625 L 0.546875 -2.171875 L 0.59375 -2.1875 L 0.515625 -2.765625 L 0.390625 -2.71875 Z M 0.109375 -3.25 "/></g></g></g><g fill="#000000" fill-opacity="1"><g transform="translate(55.287773, 65.815834)"><g><path d="M 1.234375 -3.125 L 0.71875 -2.78125 L 0.5625 -3.015625 L 0.375 -2.890625 L 1.265625 -1.5625 L 1.46875 -1.6875 L 1.796875 -1.1875 L 0.53125 -0.359375 L 0.203125 -0.859375 L 0.40625 -1 L -0.484375 -2.328125 L -0.65625 -2.203125 L -0.5 -1.96875 L -1.03125 -1.625 L -1.515625 -2.359375 L 0.75 -3.859375 Z M 1.234375 -3.125 "/></g></g></g><g fill="#000000" fill-opacity="1"><g transform="translate(57.82873, 64.104033)"><g><path d="M 0.0625 -0.046875 L -0.3125 -0.515625 L -0.1875 -0.625 L -1.1875 -1.875 L -1.3125 -1.765625 L -1.6875 -2.21875 L 0.203125 -3.734375 L 0.890625 -2.890625 L 0.25 -2.390625 L -0.0625 -2.78125 L -0.40625 -2.5 L -0.0625 -2.0625 L 0.203125 -2.265625 L 0.453125 -1.953125 L 0.1875 -1.75 L 0.59375 -1.25 L 0.9375 -1.53125 L 0.59375 -1.96875 L 1.234375 -2.46875 L 1.953125 -1.5625 Z M 0.0625 -0.046875 "/></g></g></g><g fill="#000000" fill-opacity="1"><g transform="translate(60.017683, 62.327635)"><g><path d="M 1.09375 -0.984375 C 0.757812 -0.671875 0.425781 -0.507812 0.09375 -0.5 C -0.238281 -0.5 -0.582031 -0.675781 -0.9375 -1.03125 C -1.601562 -1.726562 -1.597656 -2.398438 -0.921875 -3.046875 C -0.753906 -3.210938 -0.582031 -3.34375 -0.40625 -3.4375 C -0.226562 -3.539062 -0.078125 -3.597656 0.046875 -3.609375 L 0.65625 -2.96875 L 0.03125 -2.375 L -0.140625 -2.546875 C -0.203125 -2.617188 -0.265625 -2.65625 -0.328125 -2.65625 C -0.390625 -2.664062 -0.445312 -2.640625 -0.5 -2.578125 C -0.5625 -2.515625 -0.59375 -2.453125 -0.59375 -2.390625 C -0.59375 -2.335938 -0.5625 -2.273438 -0.5 -2.203125 L 0.25 -1.4375 C 0.3125 -1.363281 0.375 -1.320312 0.4375 -1.3125 C 0.5 -1.3125 0.5625 -1.34375 0.625 -1.40625 C 0.675781 -1.46875 0.703125 -1.523438 0.703125 -1.578125 C 0.703125 -1.640625 0.671875 -1.707031 0.609375 -1.78125 L 0.40625 -1.984375 L 1.03125 -2.578125 L 1.671875 -1.90625 C 1.648438 -1.78125 1.585938 -1.632812 1.484375 -1.46875 C 1.378906 -1.300781 1.25 -1.140625 1.09375 -0.984375 Z M 1.09375 -0.984375 "/></g></g></g><g fill="#000000" fill-opacity="1"><g transform="translate(62.079593, 60.345495)"><g><path d="M 0.25 -3.671875 L 0.140625 -3.53125 L 1.359375 -2.484375 L 1.46875 -2.625 L 1.921875 -2.234375 L 1.046875 -1.203125 L 0.59375 -1.59375 L 0.703125 -1.734375 L 0.25 -2.125 L -0.09375 -1.734375 L 0.359375 -1.34375 L 0.484375 -1.484375 L 0.9375 -1.09375 L 0.046875 -0.0625 L -0.40625 -0.453125 L -0.296875 -0.578125 L -1.515625 -1.625 L -1.625 -1.5 L -2.078125 -1.890625 L -1.1875 -2.921875 L -0.734375 -2.53125 L -0.859375 -2.390625 L -0.4375 -2.03125 L -0.09375 -2.421875 L -0.515625 -2.78125 L -0.625 -2.640625 L -1.078125 -3.03125 L -0.203125 -4.0625 Z M 0.25 -3.671875 "/></g></g></g><g fill="#000000" fill-opacity="1"><g transform="translate(64.171744, 57.851509)"><g/></g></g><g fill="#000000" fill-opacity="1"><g transform="translate(64.961184, 56.81697)"><g><path d="M 0.703125 -0.96875 C 0.578125 -0.769531 0.441406 -0.59375 0.296875 -0.4375 C 0.148438 -0.289062 0.0195312 -0.1875 -0.09375 -0.125 L -0.6875 -0.515625 L -0.25 -1.1875 C -0.1875 -1.144531 -0.128906 -1.125 -0.078125 -1.125 C -0.0351562 -1.132812 0.0078125 -1.175781 0.0625 -1.25 C 0.101562 -1.3125 0.117188 -1.363281 0.109375 -1.40625 C 0.109375 -1.445312 0.0859375 -1.476562 0.046875 -1.5 C 0.015625 -1.53125 -0.015625 -1.535156 -0.046875 -1.515625 C -0.0859375 -1.503906 -0.144531 -1.476562 -0.21875 -1.4375 L -0.484375 -1.25 C -0.703125 -1.070312 -0.898438 -0.972656 -1.078125 -0.953125 C -1.253906 -0.929688 -1.441406 -0.988281 -1.640625 -1.125 C -1.878906 -1.269531 -2.007812 -1.457031 -2.03125 -1.6875 C -2.050781 -1.925781 -1.941406 -2.226562 -1.703125 -2.59375 C -1.585938 -2.769531 -1.460938 -2.921875 -1.328125 -3.046875 C -1.203125 -3.171875 -1.078125 -3.265625 -0.953125 -3.328125 L -0.40625 -2.96875 L -0.796875 -2.375 C -0.898438 -2.445312 -0.988281 -2.421875 -1.0625 -2.296875 C -1.101562 -2.234375 -1.125 -2.179688 -1.125 -2.140625 C -1.132812 -2.097656 -1.125 -2.066406 -1.09375 -2.046875 C -1.050781 -2.023438 -1.007812 -2.019531 -0.96875 -2.03125 C -0.925781 -2.050781 -0.878906 -2.085938 -0.828125 -2.140625 L -0.5625 -2.34375 C -0.34375 -2.519531 -0.144531 -2.613281 0.03125 -2.625 C 0.21875 -2.644531 0.398438 -2.597656 0.578125 -2.484375 C 0.828125 -2.316406 0.960938 -2.101562 0.984375 -1.84375 C 1.003906 -1.582031 0.910156 -1.289062 0.703125 -0.96875 Z M 0.703125 -0.96875 "/></g></g></g><g fill="#000000" fill-opacity="1"><g transform="translate(66.433386, 54.572498)"><g><path d="M 0.765625 -2.71875 L 0.84375 -2.875 L 1.375 -2.59375 L 0.921875 -1.734375 L -0.3125 -1.765625 L -0.28125 -1.578125 L 0.0625 -1.390625 L 0.140625 -1.546875 L 0.671875 -1.265625 L 0.03125 -0.0625 L -0.5 -0.34375 L -0.40625 -0.5 L -1.828125 -1.25 L -1.921875 -1.09375 L -2.4375 -1.375 L -1.796875 -2.578125 L -1.28125 -2.296875 L -1.359375 -2.140625 L -0.9375 -1.921875 L -1.109375 -2.625 L -1.203125 -2.4375 L -1.71875 -2.71875 L -1.09375 -3.890625 L -0.578125 -3.609375 L -0.65625 -3.453125 L -0.5 -2.6875 Z M 0.765625 -2.71875 "/></g></g></g><g fill="#000000" fill-opacity="1"><g transform="translate(67.923193, 51.690151)"><g><path d="M 0.03125 -0.078125 L -0.515625 -0.3125 L -0.453125 -0.46875 L -1.921875 -1.109375 L -1.984375 -0.953125 L -2.53125 -1.203125 L -1.984375 -2.4375 L -1.4375 -2.1875 L -1.515625 -2.015625 L -0.046875 -1.375 L 0.03125 -1.546875 L 0.578125 -1.3125 Z M 0.03125 -0.078125 "/></g></g></g><g fill="#000000" fill-opacity="1"><g transform="translate(68.625414, 50.09824)"><g><path d="M 0.03125 -0.078125 L -0.53125 -0.28125 L -0.484375 -0.4375 L -2 -0.984375 L -2.046875 -0.828125 L -2.59375 -1.03125 L -2.078125 -2.453125 L -1.53125 -2.25 L -1.65625 -1.921875 L -0.140625 -1.375 L -0.03125 -1.6875 L -0.34375 -1.796875 L -0.09375 -2.46875 L 0.78125 -2.15625 Z M 0.03125 -0.078125 "/></g></g></g><g fill="#000000" fill-opacity="1"><g transform="translate(69.494171, 47.654007)"><g><path d="M 0.015625 -0.078125 L -0.5625 -0.234375 L -0.515625 -0.390625 L -2.0625 -0.8125 L -2.109375 -0.65625 L -2.6875 -0.8125 L -2.28125 -2.265625 L -1.703125 -2.109375 L -1.796875 -1.78125 L -0.25 -1.359375 L -0.171875 -1.671875 L -0.484375 -1.75 L -0.28125 -2.453125 L 0.609375 -2.21875 Z M 0.015625 -0.078125 "/></g></g></g><g fill="#000000" fill-opacity="1"><g transform="translate(70.166662, 45.146893)"><g><path d="M 0.265625 -1.15625 C 0.222656 -0.925781 0.164062 -0.710938 0.09375 -0.515625 C 0.0195312 -0.328125 -0.0507812 -0.1875 -0.125 -0.09375 L -0.828125 -0.21875 L -0.6875 -1 C -0.613281 -0.988281 -0.554688 -0.992188 -0.515625 -1.015625 C -0.472656 -1.046875 -0.441406 -1.101562 -0.421875 -1.1875 C -0.410156 -1.269531 -0.414062 -1.328125 -0.4375 -1.359375 C -0.457031 -1.390625 -0.488281 -1.410156 -0.53125 -1.421875 C -0.570312 -1.429688 -0.609375 -1.421875 -0.640625 -1.390625 C -0.671875 -1.367188 -0.707031 -1.316406 -0.75 -1.234375 L -0.921875 -0.96875 C -1.066406 -0.71875 -1.210938 -0.546875 -1.359375 -0.453125 C -1.515625 -0.367188 -1.710938 -0.347656 -1.953125 -0.390625 C -2.222656 -0.441406 -2.410156 -0.566406 -2.515625 -0.765625 C -2.628906 -0.972656 -2.648438 -1.296875 -2.578125 -1.734375 C -2.535156 -1.929688 -2.472656 -2.117188 -2.390625 -2.296875 C -2.316406 -2.472656 -2.234375 -2.613281 -2.140625 -2.71875 L -1.515625 -2.59375 L -1.65625 -1.875 C -1.78125 -1.894531 -1.851562 -1.835938 -1.875 -1.703125 C -1.894531 -1.628906 -1.894531 -1.578125 -1.875 -1.546875 C -1.863281 -1.515625 -1.835938 -1.492188 -1.796875 -1.484375 C -1.753906 -1.472656 -1.71875 -1.484375 -1.6875 -1.515625 C -1.65625 -1.546875 -1.617188 -1.597656 -1.578125 -1.671875 L -1.421875 -1.953125 C -1.285156 -2.191406 -1.140625 -2.351562 -0.984375 -2.4375 C -0.828125 -2.519531 -0.640625 -2.539062 -0.421875 -2.5 C -0.128906 -2.445312 0.0703125 -2.304688 0.1875 -2.078125 C 0.3125 -1.847656 0.335938 -1.539062 0.265625 -1.15625 Z M 0.265625 -1.15625 "/></g></g></g><g fill="#000000" fill-opacity="1"><g transform="translate(70.622577, 42.542935)"><g><path d="M 0.015625 -0.140625 L -0.578125 -0.21875 L -0.5 -0.78125 L 0.09375 -0.703125 Z M 0.015625 -0.140625 "/></g></g></g><path fill="#ffde59" d="M 5.425781 28.253906 C 5.082031 28.144531 4.769531 27.976562 4.492188 27.746094 C 4.210938 27.515625 3.984375 27.242188 3.8125 26.925781 C 3.636719 26.609375 3.53125 26.269531 3.488281 25.910156 C 3.445312 25.554688 3.472656 25.199219 3.570312 24.851562 C 4.195312 23.117188 4.949219 21.441406 5.832031 19.820312 C 6.714844 18.203125 7.714844 16.660156 8.835938 15.195312 C 9.957031 13.726562 11.183594 12.355469 12.515625 11.078125 C 13.847656 9.800781 15.269531 8.632812 16.78125 7.574219 C 18.292969 6.511719 19.878906 5.574219 21.535156 4.757812 C 23.191406 3.941406 24.898438 3.253906 26.660156 2.699219 C 28.421875 2.144531 30.21875 1.726562 32.042969 1.449219 C 33.871094 1.167969 35.707031 1.03125 37.554688 1.03125 C 39.402344 1.03125 41.238281 1.175781 43.0625 1.457031 C 44.890625 1.742188 46.683594 2.164062 48.445312 2.71875 C 50.207031 3.277344 51.914062 3.96875 53.566406 4.789062 C 55.222656 5.609375 56.804688 6.550781 58.316406 7.609375 C 59.824219 8.671875 61.246094 9.84375 62.574219 11.125 C 63.902344 12.40625 65.128906 13.777344 66.246094 15.246094 C 67.363281 16.714844 68.363281 18.257812 69.242188 19.878906 C 70.121094 21.5 70.871094 23.179688 71.496094 24.914062 C 71.589844 25.261719 71.617188 25.617188 71.574219 25.976562 C 71.53125 26.332031 71.421875 26.671875 71.25 26.988281 C 71.074219 27.304688 70.847656 27.578125 70.566406 27.808594 C 70.289062 28.035156 69.976562 28.207031 69.628906 28.3125 L 64.222656 29.78125 C 63.859375 29.902344 63.484375 29.945312 63.097656 29.914062 C 62.714844 29.882812 62.355469 29.773438 62.015625 29.59375 C 61.675781 29.410156 61.386719 29.171875 61.144531 28.871094 C 60.90625 28.570312 60.734375 28.234375 60.632812 27.863281 C 60.175781 26.714844 59.636719 25.609375 59.015625 24.542969 C 58.390625 23.476562 57.695312 22.460938 56.921875 21.5 C 56.144531 20.535156 55.304688 19.636719 54.394531 18.796875 C 53.488281 17.960938 52.519531 17.195312 51.496094 16.5 C 50.472656 15.808594 49.40625 15.191406 48.289062 14.660156 C 47.175781 14.125 46.027344 13.675781 44.84375 13.3125 C 43.660156 12.949219 42.457031 12.675781 41.234375 12.488281 C 40.011719 12.304688 38.78125 12.214844 37.542969 12.210938 C 36.308594 12.210938 35.078125 12.300781 33.851562 12.484375 C 32.628906 12.664062 31.425781 12.9375 30.242188 13.296875 C 29.058594 13.660156 27.910156 14.105469 26.792969 14.640625 C 25.675781 15.171875 24.605469 15.785156 23.582031 16.476562 C 22.558594 17.167969 21.589844 17.929688 20.679688 18.765625 C 19.769531 19.601562 18.925781 20.5 18.148438 21.460938 C 17.375 22.421875 16.675781 23.4375 16.050781 24.503906 C 15.425781 25.566406 14.882812 26.675781 14.425781 27.820312 C 14.324219 28.191406 14.152344 28.527344 13.910156 28.828125 C 13.671875 29.125 13.378906 29.367188 13.039062 29.546875 C 12.699219 29.726562 12.339844 29.835938 11.957031 29.867188 C 11.570312 29.898438 11.199219 29.851562 10.832031 29.730469 Z M 5.425781 28.253906 " fill-opacity="1" fill-rule="nonzero"/><g fill="#000000" fill-opacity="1"><g transform="translate(10.885889, 27.468528)"><g><path d="M -3 -6.171875 L -1.984375 -8.21875 L -0.953125 -7.703125 L -1.09375 -7.40625 L 2.75 -5.484375 L 1.859375 -3.71875 L -1.890625 -3.28125 L -0.078125 -2.390625 L 0.078125 -2.6875 L 1.09375 -2.171875 L 0.0625 -0.125 L -0.953125 -0.640625 L -0.796875 -0.953125 L -3.625 -2.359375 L -3.78125 -2.046875 L -4.8125 -2.5625 L -3.671875 -4.828125 L -0.34375 -5.21875 L -1.828125 -5.953125 L -1.96875 -5.65625 Z M -3 -6.171875 "/></g></g></g><g fill="#000000" fill-opacity="1"><g transform="translate(13.816857, 21.757543)"><g><path d="M 0.09375 -0.109375 L -0.796875 -0.8125 L -0.59375 -1.078125 L -3.09375 -3.015625 L -3.296875 -2.75 L -4.203125 -3.46875 L -1.296875 -7.1875 L 0.375 -5.875 L -0.59375 -4.640625 L -1.359375 -5.234375 L -1.875 -4.578125 L -1 -3.90625 L -0.625 -4.375 L 0.015625 -3.875 L -0.359375 -3.40625 L 0.625 -2.640625 L 1.140625 -3.296875 L 0.265625 -3.984375 L 1.234375 -5.21875 L 3 -3.828125 Z M 0.09375 -0.109375 "/></g></g></g><g fill="#000000" fill-opacity="1"><g transform="translate(16.590275, 17.850824)"><g><path d="M 1.375 -8.078125 L 3.109375 -9.484375 L 3.828125 -8.578125 L 3.609375 -8.40625 L 5.5 -4.40625 L 3.859375 -3.09375 L 1.46875 -5.0625 L 1.40625 -5.015625 L 2.78125 -2.234375 L 1.15625 -0.921875 L -2.40625 -3.5625 L -2.625 -3.390625 L -3.34375 -4.296875 L -1.328125 -5.921875 L -0.609375 -5.015625 L -0.8125 -4.84375 L 0.515625 -3.65625 L 0.5625 -3.6875 L -0.734375 -6.390625 L 0.828125 -7.65625 L 3.140625 -5.75 L 3.203125 -5.796875 L 2.296875 -7.34375 L 2.09375 -7.171875 Z M 1.375 -8.078125 "/></g></g></g><g fill="#000000" fill-opacity="1"><g transform="translate(23.228834, 12.875412)"><g/></g></g><g fill="#000000" fill-opacity="1"><g transform="translate(25.057618, 11.808788)"><g><path d="M 0.125 -0.046875 L -0.296875 -1.109375 L 0.03125 -1.234375 L -1.125 -4.171875 L -1.453125 -4.046875 L -1.875 -5.125 L 0.875 -6.203125 L 1.296875 -5.125 L 0.703125 -4.890625 L 1.859375 -1.953125 L 2.4375 -2.1875 L 2.203125 -2.796875 L 3.5 -3.3125 L 4.15625 -1.640625 Z M 0.125 -0.046875 "/></g></g></g><g fill="#000000" fill-opacity="1"><g transform="translate(29.308717, 10.194873)"><g><path d="M 0.140625 -0.03125 L -0.125 -1.140625 L 0.203125 -1.21875 L -0.5625 -4.28125 L -0.890625 -4.203125 L -1.15625 -5.328125 L 1.421875 -5.96875 L 1.6875 -4.84375 L 1.34375 -4.765625 L 2.109375 -1.703125 L 2.453125 -1.78125 L 2.71875 -0.671875 Z M 0.140625 -0.03125 "/></g></g></g><g fill="#000000" fill-opacity="1"><g transform="translate(32.046273, 9.356695)"><g><path d="M 3.75 -5.75 L 6.046875 -5.921875 L 6.125 -4.765625 L 5.78125 -4.75 L 6.109375 -0.46875 L 4.140625 -0.3125 L 1.859375 -3.296875 L 2.015625 -1.296875 L 2.359375 -1.328125 L 2.4375 -0.1875 L 0.140625 -0.015625 L 0.0625 -1.15625 L 0.40625 -1.171875 L 0.15625 -4.3125 L -0.1875 -4.296875 L -0.265625 -5.453125 L 2.265625 -5.640625 L 4.296875 -2.984375 L 4.171875 -4.625 L 3.828125 -4.59375 Z M 3.75 -5.75 "/></g></g></g><g fill="#000000" fill-opacity="1"><g transform="translate(38.436169, 8.913249)"><g><path d="M 2.71875 0.453125 C 1.988281 0.359375 1.445312 0.125 1.09375 -0.25 C 0.75 -0.625 0.625 -1.164062 0.71875 -1.875 L 1.03125 -4.203125 L 0.671875 -4.25 L 0.828125 -5.390625 L 3.390625 -5.046875 L 3.234375 -3.90625 L 2.96875 -3.953125 L 2.609375 -1.265625 C 2.585938 -1.109375 2.609375 -0.988281 2.671875 -0.90625 C 2.734375 -0.820312 2.828125 -0.769531 2.953125 -0.75 C 3.085938 -0.726562 3.191406 -0.75 3.265625 -0.8125 C 3.335938 -0.882812 3.382812 -1 3.40625 -1.15625 L 3.765625 -3.84375 L 3.484375 -3.875 L 3.640625 -5.015625 L 6.03125 -4.703125 L 5.875 -3.5625 L 5.515625 -3.609375 L 5.203125 -1.28125 C 5.109375 -0.570312 4.847656 -0.0820312 4.421875 0.1875 C 4.003906 0.457031 3.4375 0.546875 2.71875 0.453125 Z M 2.71875 0.453125 "/></g></g></g><g fill="#000000" fill-opacity="1"><g transform="translate(43.711421, 9.59445)"><g><path d="M 5.296875 0.578125 L 5.578125 0.671875 L 5.21875 1.75 L 2.71875 0.90625 L 3.078125 -0.171875 L 3.34375 -0.078125 L 3.140625 -0.75 L 3.078125 -0.78125 L 2.5 -0.359375 L 2.78125 -0.265625 L 2.421875 0.8125 L 0.09375 0.03125 L 0.453125 -1.046875 L 0.796875 -0.921875 L 2.5625 -1.9375 L 1.75 -3.953125 L 1.46875 -4.046875 L 1.84375 -5.140625 L 4.328125 -4.296875 L 3.953125 -3.203125 L 3.703125 -3.296875 L 3.90625 -2.625 L 3.953125 -2.609375 L 4.5 -3.03125 L 4.25 -3.109375 L 4.625 -4.203125 L 6.921875 -3.4375 L 6.546875 -2.34375 L 6.203125 -2.453125 L 4.46875 -1.46875 Z M 5.296875 0.578125 "/></g></g></g><g fill="#000000" fill-opacity="1"><g transform="translate(48.949695, 11.474353)"><g/></g></g><g fill="#000000" fill-opacity="1"><g transform="translate(50.869392, 12.297025)"><g><path d="M 2.25 1.625 C 1.632812 1.207031 1.25 0.753906 1.09375 0.265625 C 0.945312 -0.210938 1.078125 -0.753906 1.484375 -1.359375 L 2.796875 -3.296875 L 2.5 -3.5 L 3.140625 -4.453125 L 5.28125 -3 L 4.640625 -2.046875 L 4.40625 -2.203125 L 2.890625 0.03125 C 2.804688 0.164062 2.769531 0.28125 2.78125 0.375 C 2.800781 0.46875 2.867188 0.550781 2.984375 0.625 C 3.097656 0.695312 3.203125 0.722656 3.296875 0.703125 C 3.398438 0.691406 3.492188 0.617188 3.578125 0.484375 L 5.09375 -1.75 L 4.859375 -1.90625 L 5.5 -2.859375 L 7.484375 -1.515625 L 6.84375 -0.5625 L 6.546875 -0.765625 L 5.234375 1.171875 C 4.828125 1.773438 4.375 2.101562 3.875 2.15625 C 3.382812 2.207031 2.84375 2.03125 2.25 1.625 Z M 2.25 1.625 "/></g></g></g><g fill="#000000" fill-opacity="1"><g transform="translate(55.28879, 15.305963)"><g><path d="M 1.59375 1.671875 C 1.269531 1.359375 0.988281 1.035156 0.75 0.703125 C 0.519531 0.367188 0.367188 0.0976562 0.296875 -0.109375 L 1.265625 -1.109375 L 2.359375 -0.046875 C 2.253906 0.0546875 2.203125 0.15625 2.203125 0.25 C 2.203125 0.351562 2.265625 0.460938 2.390625 0.578125 C 2.492188 0.679688 2.582031 0.734375 2.65625 0.734375 C 2.738281 0.742188 2.8125 0.71875 2.875 0.65625 C 2.914062 0.601562 2.9375 0.535156 2.9375 0.453125 C 2.9375 0.367188 2.898438 0.257812 2.828125 0.125 L 2.546875 -0.4375 C 2.304688 -0.9375 2.195312 -1.359375 2.21875 -1.703125 C 2.238281 -2.054688 2.410156 -2.394531 2.734375 -2.71875 C 3.117188 -3.113281 3.535156 -3.289062 3.984375 -3.25 C 4.441406 -3.207031 4.976562 -2.894531 5.59375 -2.3125 C 5.882812 -2.03125 6.128906 -1.734375 6.328125 -1.421875 C 6.523438 -1.109375 6.65625 -0.828125 6.71875 -0.578125 L 5.84375 0.3125 L 4.84375 -0.671875 C 5.007812 -0.828125 4.984375 -1.003906 4.765625 -1.203125 C 4.671875 -1.296875 4.585938 -1.351562 4.515625 -1.375 C 4.453125 -1.394531 4.390625 -1.375 4.328125 -1.3125 C 4.273438 -1.257812 4.257812 -1.191406 4.28125 -1.109375 C 4.300781 -1.023438 4.347656 -0.914062 4.421875 -0.78125 L 4.703125 -0.1875 C 4.941406 0.28125 5.046875 0.6875 5.015625 1.03125 C 4.992188 1.382812 4.832031 1.71875 4.53125 2.03125 C 4.113281 2.457031 3.65625 2.640625 3.15625 2.578125 C 2.664062 2.515625 2.144531 2.210938 1.59375 1.671875 Z M 1.59375 1.671875 "/></g></g></g><g fill="#000000" fill-opacity="1"><g transform="translate(58.617461, 18.507114)"><g><path d="M 0.078125 0.109375 L 1 -0.5625 L 1.203125 -0.28125 L 3.75 -2.140625 L 3.546875 -2.421875 L 4.484375 -3.109375 L 7.28125 0.703125 L 5.5625 1.953125 L 4.640625 0.6875 L 5.421875 0.125 L 4.921875 -0.546875 L 4.03125 0.109375 L 4.390625 0.59375 L 3.734375 1.0625 L 3.375 0.578125 L 2.375 1.3125 L 2.875 1.984375 L 3.765625 1.328125 L 4.6875 2.59375 L 2.875 3.921875 Z M 0.078125 0.109375 "/></g></g></g><g fill="#000000" fill-opacity="1"><g transform="translate(61.519144, 22.408504)"><g><path d="M 1.09375 -0.375 L 1.234375 -0.0625 L 4.078125 -1.421875 L 3.9375 -1.734375 L 4.984375 -2.234375 L 6.375 0.671875 C 6.632812 1.203125 6.71875 1.664062 6.625 2.0625 C 6.53125 2.457031 6.238281 2.773438 5.75 3.015625 C 5.457031 3.148438 5.179688 3.210938 4.921875 3.203125 C 4.671875 3.191406 4.453125 3.101562 4.265625 2.9375 L 4.203125 2.953125 C 4.335938 3.378906 4.1875 3.695312 3.75 3.90625 L 3.265625 4.140625 L 3.40625 4.4375 L 2.375 4.9375 L 1.421875 2.9375 L 2.90625 2.234375 C 3.070312 2.148438 3.179688 2.0625 3.234375 1.96875 C 3.296875 1.882812 3.316406 1.785156 3.296875 1.671875 C 3.273438 1.554688 3.21875 1.40625 3.125 1.21875 L 2.09375 1.71875 L 2.296875 2.125 L 1.265625 2.625 L 0.0625 0.125 Z M 4.0625 1.1875 C 4.125 1.3125 4.203125 1.390625 4.296875 1.421875 C 4.390625 1.453125 4.503906 1.429688 4.640625 1.359375 L 4.875 1.25 C 5.007812 1.1875 5.09375 1.109375 5.125 1.015625 C 5.164062 0.921875 5.15625 0.8125 5.09375 0.6875 L 4.9375 0.359375 L 3.90625 0.859375 Z M 4.0625 1.1875 "/></g></g></g></svg>