<svg xmlns="http://www.w3.org/2000/svg" xmlns:xlink="http://www.w3.org/1999/xlink" width="500" zoomAndPan="magnify" viewBox="0 0 375 112.499997" height="150" preserveAspectRatio="xMidYMid meet" version="1.0"><defs><g/><clipPath id="79beda052e"><path d="M 58 73 L 88.421875 73 L 88.421875 104 L 58 104 Z M 58 73 " clip-rule="nonzero"/></clipPath><clipPath id="646a231db7"><path d="M 4.046875 71 L 37 71 L 37 104.691406 L 4.046875 104.691406 Z M 4.046875 71 " clip-rule="nonzero"/></clipPath></defs><path fill="#263238" d="M 73.003906 49.148438 C 71.511719 47.003906 64.507812 36.429688 63.269531 31.289062 C 61.378906 23.441406 63.03125 23.109375 62.1875 18.84375 C 61.488281 15.300781 60.023438 12.890625 58.671875 10.996094 C 57.050781 9.101562 56.0625 8.289062 54.875 7.566406 C 52.441406 6.210938 45.960938 4.230469 38.929688 8.019531 C 31.628906 11.808594 32.441406 19.925781 33.792969 36.429688 C 34.25 41.640625 24.597656 51.855469 23.246094 54.832031 C 20 61.054688 17.589844 67.667969 17.835938 71.875 C 18.367188 83.558594 22.679688 98.84375 36.226562 98.125 C 37.308594 97.851562 41.90625 97.851562 45.960938 97.851562 C 51.640625 97.582031 54.886719 97.3125 59.484375 98.394531 C 67.21875 99.1875 77.917969 89.625 80.035156 71.605469 C 81.089844 63.785156 77.332031 55.371094 73.003906 49.148438 Z M 73.003906 49.148438 " fill-opacity="1" fill-rule="nonzero"/><path fill="#eceff1" d="M 36.277344 36.839844 C 36.277344 36.839844 37.3125 44.871094 30.96875 53.675781 C 24.621094 62.484375 24.105469 72.71875 26.175781 78.289062 C 28.25 83.859375 43.394531 104.324219 63.074219 84.117188 C 66.3125 80.75 69.03125 65.335938 63.59375 54.84375 C 58.152344 44.351562 55.566406 36.0625 55.046875 33.46875 C 54.527344 30.878906 36.277344 36.839844 36.277344 36.839844 Z M 36.277344 36.839844 " fill-opacity="1" fill-rule="nonzero"/><path fill="#263238" d="M 66.613281 57.4375 C 66.613281 57.4375 64.214844 40.035156 71.878906 48.671875 C 83.140625 61.363281 74.078125 70.777344 72.480469 72.464844 C 70.503906 74.550781 65.234375 75.847656 67.648438 69.746094 C 69.289062 65.597656 70.453125 61.0625 66.613281 57.4375 Z M 66.613281 57.4375 " fill-opacity="1" fill-rule="nonzero"/><path fill="#eceff1" d="M 63.851562 51.734375 C 63.851562 51.734375 76.796875 59.765625 66.570312 72.113281 C 63.59375 75.742188 66.742188 77.210938 68.8125 75.136719 C 70.886719 73.066406 78.910156 58.644531 63.851562 51.734375 Z M 63.851562 51.734375 " fill-opacity="1" fill-rule="nonzero"/><path fill="#263238" d="M 27.046875 59.25 C 27.046875 59.25 35.296875 40.398438 27.425781 48.84375 C 22.074219 54.582031 19.960938 65.945312 20.523438 70.34375 C 20.886719 73.195312 24.675781 77.070312 25.011719 70.519531 C 25.359375 63.785156 26.222656 61.96875 27.046875 59.25 Z M 27.046875 59.25 " fill-opacity="1" fill-rule="nonzero"/><path fill="#eceff1" d="M 25.226562 69.351562 C 25.226562 69.351562 22.8125 64.691406 27.300781 54.289062 C 20.738281 64.039062 21.992188 70.863281 24.925781 72.765625 C 27.828125 74.640625 26.609375 70.90625 25.226562 69.351562 Z M 25.226562 69.351562 " fill-opacity="1" fill-rule="nonzero"/><g clip-path="url(#79beda052e)"><path fill="#ffc107" d="M 86.527344 86.21875 C 85.445312 85.675781 83.550781 84.863281 81.929688 82.429688 C 81.117188 81.078125 81.390625 77.289062 80.035156 75.664062 C 79.226562 74.582031 78.144531 75.125 77.875 75.125 C 75.441406 75.664062 69.761719 79.453125 65.972656 75.125 C 65.433594 74.582031 64.621094 73.769531 63.269531 73.769531 C 61.917969 73.769531 61.378906 74.3125 60.835938 75.394531 C 60.296875 76.476562 60.296875 77.289062 60.296875 79.996094 C 60.296875 82.160156 60.296875 84.59375 60.023438 86.488281 C 59.484375 91.089844 58.671875 93.792969 58.671875 96.5 C 58.671875 99.476562 59.484375 101.371094 60.566406 102.183594 C 61.378906 102.992188 62.730469 103.535156 65.703125 103.535156 C 68.679688 103.535156 70.570312 102.453125 72.464844 100.558594 C 73.816406 99.207031 74.898438 98.664062 78.683594 95.957031 C 81.660156 94.066406 86.257812 91.628906 87.066406 90.816406 C 87.609375 90.277344 88.421875 90.003906 88.421875 88.382812 C 88.421875 87.03125 87.339844 86.488281 86.527344 86.21875 Z M 86.527344 86.21875 " fill-opacity="1" fill-rule="nonzero"/></g><g clip-path="url(#646a231db7)"><path fill="#ffc107" d="M 32.171875 87.03125 C 29.464844 82.699219 29.195312 81.886719 27.300781 79.183594 C 25.679688 76.476562 22.164062 71.335938 20 71.335938 C 18.378906 71.335938 17.566406 72.148438 16.484375 73.230469 C 15.402344 74.3125 14.320312 76.746094 12.429688 78.101562 C 10.804688 79.453125 6.207031 79.183594 5.128906 80.804688 C 4.046875 82.429688 6.207031 84.863281 6.207031 88.921875 C 6.207031 90.546875 4.855469 91.628906 4.585938 92.710938 C 4.316406 94.066406 4.046875 94.875 4.585938 95.957031 C 5.667969 97.582031 7.019531 98.125 16.214844 100.015625 C 21.082031 101.101562 25.679688 103.804688 28.65625 104.074219 C 31.628906 104.347656 36.769531 104.074219 36.769531 96.769531 C 37.039062 92.441406 34.605469 91.359375 32.171875 87.03125 Z M 32.171875 87.03125 " fill-opacity="1" fill-rule="nonzero"/></g><path fill="#eceff1" d="M 38.660156 20.464844 C 36.71875 20.464844 35.144531 22.886719 35.140625 25.875 C 35.140625 28.863281 36.714844 31.289062 38.65625 31.289062 C 38.65625 31.289062 38.65625 31.289062 38.660156 31.289062 C 40.601562 31.292969 42.175781 28.871094 42.179688 25.878906 C 42.183594 22.890625 40.609375 20.464844 38.667969 20.464844 C 38.664062 20.464844 38.664062 20.464844 38.660156 20.464844 Z M 50.832031 19.382812 C 48.289062 19.382812 46.234375 22.171875 46.234375 25.605469 C 46.234375 29.042969 48.289062 31.832031 50.832031 31.832031 C 53.371094 31.832031 55.425781 29.042969 55.425781 25.605469 C 55.425781 22.171875 53.371094 19.382812 50.832031 19.382812 Z M 50.832031 19.382812 " fill-opacity="1" fill-rule="nonzero"/><path fill="#212121" d="M 40.667969 26.164062 C 40.722656 26.589844 40.726562 27.007812 40.679688 27.414062 C 40.636719 27.820312 40.542969 28.1875 40.40625 28.511719 C 40.269531 28.835938 40.09375 29.09375 39.882812 29.285156 C 39.675781 29.480469 39.445312 29.589844 39.195312 29.621094 C 38.949219 29.652344 38.699219 29.601562 38.449219 29.46875 C 38.195312 29.332031 37.964844 29.125 37.75 28.847656 C 37.535156 28.566406 37.355469 28.234375 37.210938 27.851562 C 37.066406 27.46875 36.964844 27.066406 36.910156 26.636719 C 36.859375 26.210938 36.855469 25.792969 36.898438 25.386719 C 36.945312 24.980469 37.035156 24.617188 37.175781 24.289062 C 37.3125 23.964844 37.484375 23.707031 37.695312 23.515625 C 37.90625 23.324219 38.132812 23.210938 38.382812 23.179688 C 38.632812 23.148438 38.882812 23.199219 39.132812 23.332031 C 39.382812 23.46875 39.617188 23.675781 39.828125 23.953125 C 40.042969 24.234375 40.222656 24.566406 40.371094 24.949219 C 40.515625 25.332031 40.613281 25.734375 40.667969 26.164062 Z M 40.667969 26.164062 " fill-opacity="1" fill-rule="nonzero"/><path fill="#212121" d="M 50.601562 23.085938 C 49.109375 23.085938 47.898438 24.65625 47.894531 26.601562 C 47.894531 28.542969 49.105469 30.117188 50.597656 30.121094 C 50.597656 30.121094 50.601562 30.121094 50.601562 30.121094 C 52.09375 30.121094 53.304688 28.546875 53.308594 26.605469 C 53.308594 24.664062 52.097656 23.089844 50.605469 23.085938 C 50.605469 23.085938 50.601562 23.085938 50.601562 23.085938 Z M 50.601562 23.085938 " fill-opacity="1" fill-rule="nonzero"/><path fill="#ffc107" d="M 37.308594 38.054688 C 35.6875 36.972656 34.332031 35.890625 34.332031 34.265625 C 34.332031 32.640625 35.414062 32.101562 37.039062 30.75 C 37.308594 30.476562 40.285156 27.773438 43.257812 27.773438 C 46.234375 27.773438 49.75 29.664062 51.101562 30.207031 C 53.535156 30.75 55.96875 31.289062 55.699219 33.183594 C 55.425781 35.890625 55.15625 36.429688 52.453125 37.785156 C 50.558594 38.324219 47.042969 41.300781 44.609375 41.300781 C 43.527344 41.300781 41.90625 41.300781 40.824219 41.03125 C 40.011719 40.761719 38.660156 39.40625 37.308594 38.054688 Z M 37.308594 38.054688 " fill-opacity="1" fill-rule="nonzero"/><path fill="#634703" d="M 35.738281 33.929688 C 35.738281 33.929688 38.347656 36.78125 41.953125 36.636719 C 45.5625 36.488281 50.628906 33.664062 52.675781 32.34375 C 53.578125 31.882812 53.945312 32.320312 53.089844 33.074219 C 52.136719 33.921875 46.050781 37.335938 43.613281 37.660156 C 42.882812 37.757812 40.640625 37.78125 40.003906 37.585938 C 39.371094 37.390625 36.089844 35.601562 35.398438 34.5625 C 34.863281 33.757812 35.617188 33.757812 35.738281 33.929688 Z M 35.738281 33.929688 " fill-opacity="1" fill-rule="nonzero"/><path fill="#634703" d="M 41.785156 30.273438 C 41.785156 30.273438 41.320312 30.3125 41.015625 30.683594 C 40.710938 31.054688 40.371094 30.46875 40.660156 30.148438 C 40.953125 29.832031 41.269531 29.46875 41.929688 29.664062 C 42.589844 29.859375 41.953125 30.222656 41.785156 30.273438 Z M 41.785156 30.273438 " fill-opacity="1" fill-rule="nonzero"/><path fill="#634703" d="M 45.207031 30.273438 C 45.207031 30.273438 45.667969 30.3125 45.972656 30.683594 C 46.277344 31.054688 46.621094 30.46875 46.328125 30.148438 C 46.035156 29.832031 45.71875 29.46875 45.058594 29.664062 C 44.398438 29.859375 45.035156 30.222656 45.207031 30.273438 Z M 45.207031 30.273438 " fill-opacity="1" fill-rule="nonzero"/><g fill="#000000" fill-opacity="1"><g transform="translate(91.180268, 44.900444)"><g><path d="M 2.542969 0 L 10.101562 0 C 5.488281 -8.285156 3.199219 -17.875 3.199219 -31.753906 C 3.199219 -31.753906 4.105469 -32.410156 6.140625 -28.523438 C 7.195312 -26.488281 9.265625 -22.164062 12.753906 -15.515625 C 17.222656 -7.011719 22.054688 0.363281 26.523438 0.363281 C 27.03125 0.363281 27.757812 0.21875 28.160156 0 L 28.160156 -36.332031 L 20.601562 -36.332031 C 25.214844 -28.050781 27.503906 -18.457031 27.503906 -4.867188 C 27.503906 -4.867188 26.851562 -4.105469 24.886719 -6.214844 C 23.324219 -7.921875 20.929688 -11.445312 17.292969 -18.167969 C 10.464844 -30.8125 9.59375 -36.695312 4.179688 -36.695312 C 3.667969 -36.695312 2.941406 -36.550781 2.542969 -36.332031 Z M 2.542969 0 "/></g></g></g><g fill="#000000" fill-opacity="1"><g transform="translate(121.879712, 44.900444)"><g><path d="M 1.453125 -12.207031 C 1.453125 -2.941406 9.519531 0.363281 18.277344 0.363281 C 20.746094 0.363281 22.597656 0 24.523438 -0.910156 L 26.707031 -7.230469 C 24.234375 -5.160156 21.183594 -4.90625 18.128906 -4.90625 C 9.992188 -4.90625 2.105469 -6.578125 2.105469 -11.917969 C 2.105469 -13.808594 3.523438 -14.933594 6.792969 -14.933594 C 11.554688 -14.933594 15.222656 -11.445312 20.601562 -11.625 C 23.144531 -11.699219 25.433594 -13.40625 25.433594 -16.132812 C 25.433594 -23.363281 6.429688 -20.855469 6.429688 -27.757812 C 6.429688 -30.300781 8.683594 -31.574219 13.988281 -31.574219 C 18.640625 -31.574219 23.472656 -30.339844 25.578125 -28.8125 L 27.070312 -34.261719 C 24.816406 -36.078125 18.566406 -36.695312 14.824219 -36.695312 C 4.359375 -36.695312 2.324219 -31.753906 2.324219 -29.539062 C 2.324219 -24.160156 7.558594 -23.179688 12.679688 -21.945312 C 16.566406 -21 22.78125 -19.875 22.78125 -17.730469 C 22.78125 -16.894531 22.019531 -16.566406 21.183594 -16.566406 C 17.804688 -16.566406 15.042969 -19.113281 10.210938 -19.113281 C 5.269531 -19.113281 1.453125 -16.824219 1.453125 -12.207031 Z M 1.453125 -12.207031 "/></g></g></g><g fill="#000000" fill-opacity="1"><g transform="translate(149.745353, 44.900444)"><g><path d="M 0.726562 -36.332031 C 4.503906 -23.945312 6.683594 -16.605469 10.390625 -4.503906 C 11.15625 -2 12.609375 0.363281 15.261719 0.363281 C 17.914062 0.363281 19.367188 -2 20.128906 -4.503906 C 21.765625 -9.847656 23.109375 -14.242188 24.417969 -18.566406 C 25.761719 -14.242188 27.070312 -9.808594 28.703125 -4.503906 C 29.464844 -2 30.917969 0.363281 33.570312 0.363281 C 36.222656 0.363281 37.679688 -2 38.441406 -4.503906 C 42.109375 -16.605469 44.363281 -23.945312 48.105469 -36.332031 L 42.546875 -36.332031 C 38.804688 -23.945312 36.695312 -16.566406 32.882812 -4.503906 C 32.554688 -3.488281 32.082031 -3.160156 31.28125 -3.160156 C 28.121094 -3.160156 26.8125 -15.839844 26.558594 -25.613281 C 27.539062 -28.886719 28.59375 -32.335938 29.792969 -36.332031 L 24.234375 -36.332031 C 20.492188 -23.945312 18.382812 -16.566406 14.570312 -4.503906 C 14.242188 -3.488281 13.769531 -3.160156 12.972656 -3.160156 C 8.175781 -3.160156 7.628906 -32.082031 8.648438 -36.332031 Z M 0.726562 -36.332031 "/></g></g></g><g fill="#000000" fill-opacity="1"><g transform="translate(91.180268, 91.413483)"><g><path d="M 2.542969 0 L 24.34375 0 L 24.34375 -5.957031 C 21.871094 -3.414062 14.171875 -0.582031 7.8125 -0.546875 L 7.8125 -36.332031 L 2.542969 -36.332031 Z M 2.542969 0 "/></g></g></g><g fill="#000000" fill-opacity="1"><g transform="translate(116.938736, 91.413483)"><g><path d="M 2.542969 0 L 7.8125 0 L 7.8125 -36.332031 L 2.542969 -36.332031 Z M 2.542969 0 "/></g></g></g><g fill="#000000" fill-opacity="1"><g transform="translate(127.292981, 91.413483)"><g><path d="M 2.542969 0 L 10.101562 0 C 5.488281 -8.285156 3.199219 -17.875 3.199219 -31.753906 C 3.199219 -31.753906 4.105469 -32.410156 6.140625 -28.523438 C 7.195312 -26.488281 9.265625 -22.164062 12.753906 -15.515625 C 17.222656 -7.011719 22.054688 0.363281 26.523438 0.363281 C 27.03125 0.363281 27.757812 0.21875 28.160156 0 L 28.160156 -36.332031 L 20.601562 -36.332031 C 25.214844 -28.050781 27.503906 -18.457031 27.503906 -4.867188 C 27.503906 -4.867188 26.851562 -4.105469 24.886719 -6.214844 C 23.324219 -7.921875 20.929688 -11.445312 17.292969 -18.167969 C 10.464844 -30.8125 9.59375 -36.695312 4.179688 -36.695312 C 3.667969 -36.695312 2.941406 -36.550781 2.542969 -36.332031 Z M 2.542969 0 "/></g></g></g><g fill="#000000" fill-opacity="1"><g transform="translate(157.992425, 91.413483)"><g><path d="M 2.542969 -7.992188 C 2.542969 -3.5625 5.59375 0.363281 11.371094 0.363281 C 22.925781 0.363281 28.195312 -13.1875 28.195312 -21.945312 L 28.195312 -36.332031 L 22.925781 -36.332031 L 22.960938 -8.03125 C 22.960938 -4.359375 17.984375 -4.359375 13.152344 -4.359375 C 6.578125 -4.359375 3.199219 -5.558594 3.199219 -9.957031 C 3.199219 -14.242188 5.777344 -27.648438 10.101562 -36.332031 L 2.542969 -36.332031 Z M 2.542969 -7.992188 "/></g></g></g><g fill="#000000" fill-opacity="1"><g transform="translate(188.364888, 91.413483)"><g><path d="M 9.191406 -0.183594 C 7.195312 -0.183594 6.359375 -1.851562 6.359375 -3.632812 C 6.359375 -7.085938 10.136719 -13.550781 12.644531 -17.585938 L 23.871094 0 L 30.121094 0 L 18.457031 -18.277344 L 30.011719 -36.332031 L 21.617188 -36.332031 L 21.617188 -36.152344 C 23.617188 -36.152344 24.453125 -34.480469 24.453125 -32.699219 C 24.453125 -29.285156 20.671875 -22.816406 18.167969 -18.75 L 6.976562 -36.332031 L 0.726562 -36.332031 L 12.351562 -18.09375 L 0.800781 0 L 9.191406 0 Z M 9.191406 -0.183594 "/></g></g></g><g fill="#000000" fill-opacity="1"><g transform="translate(219.209644, 91.413483)"><g/></g></g><g fill="#000000" fill-opacity="1"><g transform="translate(233.741925, 91.413483)"><g><path d="M 2.542969 -7.992188 C 2.542969 -3.5625 5.59375 0.363281 11.371094 0.363281 C 22.925781 0.363281 28.195312 -13.1875 28.195312 -21.945312 L 28.195312 -36.332031 L 22.925781 -36.332031 L 22.960938 -8.03125 C 22.960938 -4.359375 17.984375 -4.359375 13.152344 -4.359375 C 6.578125 -4.359375 3.199219 -5.558594 3.199219 -9.957031 C 3.199219 -14.242188 5.777344 -27.648438 10.101562 -36.332031 L 2.542969 -36.332031 Z M 2.542969 -7.992188 "/></g></g></g><g fill="#000000" fill-opacity="1"><g transform="translate(264.114388, 91.413483)"><g><path d="M 12.644531 0.363281 C 19.945312 0.363281 26.707031 -3.996094 26.707031 -11.082031 C 26.707031 -17.914062 21.074219 -21.328125 12.898438 -21.910156 C 8.757812 -22.199219 2.105469 -21.800781 2.105469 -25.976562 C 2.105469 -29.976562 7.738281 -31.5 13.042969 -31.5 C 17.695312 -31.5 22.527344 -30.265625 24.632812 -28.738281 L 26.125 -34.261719 C 23.871094 -36.078125 19.003906 -36.695312 15.261719 -36.695312 C 4.796875 -36.695312 1.488281 -30.882812 1.488281 -26.414062 C 1.488281 -20.457031 4.503906 -17.039062 13.699219 -15.476562 C 18.964844 -14.570312 26.015625 -14.386719 26.015625 -10.0625 C 26.015625 -5.488281 19.292969 -4.652344 15.332031 -4.652344 C 10.171875 -4.652344 6.792969 -6.46875 2.90625 -8.867188 L 0.726562 -3.816406 C 2.835938 -1.707031 7.703125 0.363281 12.644531 0.363281 Z M 12.644531 0.363281 "/></g></g></g><g fill="#000000" fill-opacity="1"><g transform="translate(291.544059, 91.413483)"><g><path d="M 1.453125 -12.207031 C 1.453125 -2.941406 9.519531 0.363281 18.277344 0.363281 C 20.746094 0.363281 22.597656 0 24.523438 -0.910156 L 26.707031 -7.230469 C 24.234375 -5.160156 21.183594 -4.90625 18.128906 -4.90625 C 9.992188 -4.90625 2.105469 -6.578125 2.105469 -11.917969 C 2.105469 -13.808594 3.523438 -14.933594 6.792969 -14.933594 C 11.554688 -14.933594 15.222656 -11.445312 20.601562 -11.625 C 23.144531 -11.699219 25.433594 -13.40625 25.433594 -16.132812 C 25.433594 -23.363281 6.429688 -20.855469 6.429688 -27.757812 C 6.429688 -30.300781 8.683594 -31.574219 13.988281 -31.574219 C 18.640625 -31.574219 23.472656 -30.339844 25.578125 -28.8125 L 27.070312 -34.261719 C 24.816406 -36.078125 18.566406 -36.695312 14.824219 -36.695312 C 4.359375 -36.695312 2.324219 -31.753906 2.324219 -29.539062 C 2.324219 -24.160156 7.558594 -23.179688 12.679688 -21.945312 C 16.566406 -21 22.78125 -19.875 22.78125 -17.730469 C 22.78125 -16.894531 22.019531 -16.566406 21.183594 -16.566406 C 17.804688 -16.566406 15.042969 -19.113281 10.210938 -19.113281 C 5.269531 -19.113281 1.453125 -16.824219 1.453125 -12.207031 Z M 1.453125 -12.207031 "/></g></g></g><g fill="#000000" fill-opacity="1"><g transform="translate(319.409688, 91.413483)"><g><path d="M 7.8125 0 L 7.8125 -35.789062 L 15.585938 -35.789062 C 19.875 -35.789062 21.582031 -33.171875 21.582031 -29.757812 C 21.582031 -20.238281 10.609375 -19.800781 10.609375 -16.277344 C 10.609375 -13.953125 15.261719 -6.757812 18.3125 -2.761719 C 20.203125 -0.289062 20.308594 0 22.453125 0 L 28.449219 0 L 28.449219 -0.21875 C 25.832031 -0.21875 14.824219 -16.242188 14.824219 -18.75 C 14.824219 -20.964844 26.851562 -21.328125 26.851562 -30.085938 C 26.851562 -33.0625 24.925781 -36.332031 20.964844 -36.332031 L 2.542969 -36.332031 L 2.542969 0 Z M 7.8125 0 "/></g></g></g></svg>